<?xml version="1.0" encoding="UTF-8"?>
<svg version="1.1" xmlns="http://www.w3.org/2000/svg" width="142" height="190">
<path d="M0 0 C1.8125 0.1875 1.8125 0.1875 4 1 C5.05132873 2.63477389 6.04480809 4.30725484 7 6 C7.47179687 6.74378906 7.94359375 7.48757812 8.4296875 8.25390625 C16.63613313 21.36203968 20.57979964 35.68886372 24.09765625 50.60546875 C24.27159912 51.33475586 24.44554199 52.06404297 24.62475586 52.81542969 C24.94999798 54.1951293 25.26518664 55.57725105 25.56860352 56.96191406 C26.34079199 60.51423938 26.34079199 60.51423938 28.41137695 63.40039062 C31.67717261 66.68877131 33.17460978 71.38825656 35.0625 75.5625 C35.50916016 76.51447266 35.95582031 77.46644531 36.41601562 78.44726562 C40.30053527 86.97695077 42.29263238 94.90140238 42.25 104.3125 C42.25773437 106.03919922 42.25773437 106.03919922 42.265625 107.80078125 C42.00478027 110.94242586 41.33938091 113.16710308 40 116 C38.02 115.505 38.02 115.505 36 115 C35.02194949 111.87500935 34.86755653 108.87671735 34.75976562 105.61767578 C34.44483597 96.66133167 33.06074186 88.12148371 29 80 C28.95512451 80.72477539 28.91024902 81.44955078 28.86401367 82.19628906 C28.64990964 85.54836359 28.41878709 88.8990689 28.1875 92.25 C28.08211914 93.95929688 28.08211914 93.95929688 27.97460938 95.703125 C27.19677755 106.65499711 24.91564685 116.41774291 20.51171875 126.46875 C19.33130321 129.22610311 18.22018205 131.9829157 17.14453125 134.78125 C13.44138022 144.37952738 9.63099541 153.34234456 4 162 C2.15234375 161.90234375 2.15234375 161.90234375 0 161 C-1.48679786 157.73792112 -2.48198525 154.4212942 -3.55859375 151.00390625 C-4.72645585 147.80767214 -4.72645585 147.80767214 -7.66015625 146.58984375 C-8.81837891 146.29787109 -8.81837891 146.29787109 -10 146 C-10.0928125 147.7325 -10.0928125 147.7325 -10.1875 149.5 C-10.77804089 154.36327795 -12.82524036 158.28127842 -16 162 C-16.66 162 -17.32 162 -18 162 C-22.40469017 153.76183309 -25.83075754 145.84936032 -28.61328125 136.91015625 C-29.79468381 133.35877225 -31.36090209 130.09689696 -33.04711914 126.76074219 C-42.38527601 108.25786646 -42.99677329 87.32488982 -40 67 C-40.721875 67.18820313 -41.44375 67.37640625 -42.1875 67.5703125 C-46.83672424 68.28061065 -50.73412716 66.81616368 -55 65 C-59.91621392 61.15252824 -63.51380593 56.47702423 -64.38671875 50.234375 C-64.75626622 40.29482242 -61.9587586 32.72310117 -55.5625 25.1796875 C-54 24 -54 24 -50 24 C-49 27 -49 27 -50.1796875 29.8203125 C-50.73914062 30.91085938 -51.29859375 32.00140625 -51.875 33.125 C-55.24751756 40.18375769 -56.30916224 45.16638825 -55.6875 52.875 C-53.72613598 56.50715559 -53.03173125 56.71483501 -49.25 57.9375 C-45.44839862 58.84106902 -41.92014287 59.30948496 -38 59 C-37.89042969 58.33355469 -37.78085937 57.66710937 -37.66796875 56.98046875 C-34.44910924 38.26921227 -28.96863434 15.46501523 -16 1 C-13 2 -13 2 -11.6484375 4.109375 C-11.01808594 5.41648437 -11.01808594 5.41648437 -10.375 6.75 C-9.73691406 8.04164062 -9.73691406 8.04164062 -9.0859375 9.359375 C-8.03369914 11.91805532 -7.44096312 14.27582783 -7 17 C-6.01 17 -5.02 17 -4 17 C-3.81824219 15.91332031 -3.81824219 15.91332031 -3.6328125 14.8046875 C-2.75060421 9.71502427 -1.83557653 4.85116654 0 0 Z " fill="#F6CC56" transform="translate(80,18)"/>
<path d="M0 0 C1.8125 0.1875 1.8125 0.1875 4 1 C5.05132873 2.63477389 6.04480809 4.30725484 7 6 C7.47179687 6.74378906 7.94359375 7.48757812 8.4296875 8.25390625 C16.63613313 21.36203968 20.57979964 35.68886372 24.09765625 50.60546875 C24.27159912 51.33475586 24.44554199 52.06404297 24.62475586 52.81542969 C24.94999798 54.1951293 25.26518664 55.57725105 25.56860352 56.96191406 C26.34079199 60.51423938 26.34079199 60.51423938 28.41137695 63.40039062 C31.67717261 66.68877131 33.17460978 71.38825656 35.0625 75.5625 C35.50916016 76.51447266 35.95582031 77.46644531 36.41601562 78.44726562 C40.30053527 86.97695077 42.29263238 94.90140238 42.25 104.3125 C42.25773437 106.03919922 42.25773437 106.03919922 42.265625 107.80078125 C42.00478027 110.94242586 41.33938091 113.16710308 40 116 C38.02 115.505 38.02 115.505 36 115 C35.02194949 111.87500935 34.86755653 108.87671735 34.75976562 105.61767578 C34.44483597 96.66133167 33.06074186 88.12148371 29 80 C28.95512451 80.72477539 28.91024902 81.44955078 28.86401367 82.19628906 C28.64990964 85.54836359 28.41878709 88.8990689 28.1875 92.25 C28.08211914 93.95929688 28.08211914 93.95929688 27.97460938 95.703125 C27.19677755 106.65499711 24.91564685 116.41774291 20.51171875 126.46875 C19.33130321 129.22610311 18.22018205 131.9829157 17.14453125 134.78125 C13.44138022 144.37952738 9.63099541 153.34234456 4 162 C2.15234375 161.90234375 2.15234375 161.90234375 0 161 C-1.48679786 157.73792112 -2.48198525 154.4212942 -3.55859375 151.00390625 C-4.72645585 147.80767214 -4.72645585 147.80767214 -7.66015625 146.58984375 C-8.81837891 146.29787109 -8.81837891 146.29787109 -10 146 C-10.0928125 147.7325 -10.0928125 147.7325 -10.1875 149.5 C-10.77804089 154.36327795 -12.82524036 158.28127842 -16 162 C-16.66 162 -17.32 162 -18 162 C-22.40469017 153.76183309 -25.83075754 145.84936032 -28.61328125 136.91015625 C-29.79468381 133.35877225 -31.36090209 130.09689696 -33.04711914 126.76074219 C-42.38527601 108.25786646 -42.99677329 87.32488982 -40 67 C-40.721875 67.18820313 -41.44375 67.37640625 -42.1875 67.5703125 C-46.83672424 68.28061065 -50.73412716 66.81616368 -55 65 C-59.91621392 61.15252824 -63.51380593 56.47702423 -64.38671875 50.234375 C-64.75626622 40.29482242 -61.9587586 32.72310117 -55.5625 25.1796875 C-54 24 -54 24 -50 24 C-49 27 -49 27 -50.1796875 29.8203125 C-50.73914062 30.91085938 -51.29859375 32.00140625 -51.875 33.125 C-55.24751756 40.18375769 -56.30916224 45.16638825 -55.6875 52.875 C-53.72613598 56.50715559 -53.03173125 56.71483501 -49.25 57.9375 C-45.44839862 58.84106902 -41.92014287 59.30948496 -38 59 C-37.89042969 58.33355469 -37.78085937 57.66710937 -37.66796875 56.98046875 C-34.44910924 38.26921227 -28.96863434 15.46501523 -16 1 C-13 2 -13 2 -11.6484375 4.109375 C-11.01808594 5.41648437 -11.01808594 5.41648437 -10.375 6.75 C-9.73691406 8.04164062 -9.73691406 8.04164062 -9.0859375 9.359375 C-8.03369914 11.91805532 -7.44096312 14.27582783 -7 17 C-6.01 17 -5.02 17 -4 17 C-3.81824219 15.91332031 -3.81824219 15.91332031 -3.6328125 14.8046875 C-2.75060421 9.71502427 -1.83557653 4.85116654 0 0 Z M16 43 C15.154375 43.78375 14.30875 44.5675 13.4375 45.375 C9.50239953 48.97138296 5.13018727 48.88847419 0 49 C0 48.34 0 47.68 0 47 C-3.36257556 45.06387007 -3.36257556 45.06387007 -7 44 C-9.77117244 44.94690641 -11.58060543 46.27186102 -14 48 C-14 48.66 -14 49.32 -14 50 C-9.71 50.33 -5.42 50.66 -1 51 C-4.44781888 59.7426836 -4.44781888 59.7426836 -6.953125 60.91015625 C-9 61 -9 61 -12 59 C-12.6875 55.875 -12.6875 55.875 -13 53 C-13.99 53 -14.98 53 -16 53 C-16.33 51.68 -16.66 50.36 -17 49 C-19.31 48.67 -21.62 48.34 -24 48 C-24.33 47.01 -24.66 46.02 -25 45 C-26.65 44.67 -28.3 44.34 -30 44 C-30.4803318 45.58298026 -30.95921612 47.16639978 -31.4375 48.75 C-31.70433594 49.63171875 -31.97117187 50.5134375 -32.24609375 51.421875 C-32.88468494 53.60565835 -33.46775833 55.78835498 -34 58 C-34.66 58 -35.32 58 -36 58 C-38.24018222 66.71280358 -38.27441747 75.09401684 -38.20581055 84.02539062 C-38.18733546 86.52223734 -38.18530285 89.01871644 -38.18554688 91.515625 C-38.1806384 93.10416989 -38.17481304 94.69271227 -38.16796875 96.28125 C-38.16685593 97.02701294 -38.1657431 97.77277588 -38.16459656 98.5411377 C-38.19720659 102.39797945 -38.19720659 102.39797945 -37 106 C-36.94690363 107.37460608 -36.90763291 108.74975595 -36.875 110.125 C-36.4181108 115.39858551 -34.67176725 119.76773891 -32.5625 124.5625 C-32.24974121 125.27744629 -31.93698242 125.99239258 -31.61474609 126.72900391 C-30.07866896 130.53959532 -30.07866896 130.53959532 -27 133 C-27.66 130.36 -28.32 127.72 -29 125 C-26.66666667 127.33333333 -24.33333333 129.66666667 -22 132 C-14.88941786 135.36817049 -6.15755814 135.07196604 1.1875 132.5625 C9.77453564 128.61412027 15.53364868 121.71586351 18.91870117 113.00024414 C22.66372227 102.60905781 23.47712697 92.99043032 23.39111328 82.05566406 C23.37506954 79.63549038 23.39101903 77.2169974 23.41015625 74.796875 C23.42353781 64.09463401 22.41248838 54.23746515 19 44 C18.01 43.67 17.02 43.34 16 43 Z " fill="#F1CA5D" transform="translate(80,18)"/>
<path d="M0 0 C2 1 2 1 2.9296875 3.59765625 C3.24164063 4.74105469 3.55359375 5.88445313 3.875 7.0625 C4.22175781 8.31804688 4.56851563 9.57359375 4.92578125 10.8671875 C5.67492086 13.69636326 6.37276014 16.53395214 7.04296875 19.3828125 C7.21393066 20.10073975 7.38489258 20.81866699 7.56103516 21.55834961 C7.89002923 22.95521294 8.20907032 24.35446581 8.51708984 25.75610352 C9.30295086 29.42010212 9.30295086 29.42010212 11.41357422 32.40917969 C14.6826436 35.68730467 16.17690694 40.39333571 18.0625 44.5625 C18.50916016 45.51447266 18.95582031 46.46644531 19.41601562 47.44726562 C23.30053527 55.97695077 25.29263238 63.90140238 25.25 73.3125 C25.25773437 75.03919922 25.25773437 75.03919922 25.265625 76.80078125 C25.00478027 79.94242586 24.33938091 82.16710308 23 85 C21.02 84.505 21.02 84.505 19 84 C18.02194949 80.87500935 17.86755653 77.87671735 17.75976562 74.61767578 C17.44483597 65.66133167 16.06074186 57.12148371 12 49 C11.95512451 49.72477539 11.91024902 50.44955078 11.86401367 51.19628906 C11.64990964 54.54836359 11.41878709 57.8990689 11.1875 61.25 C11.11724609 62.38953125 11.04699219 63.5290625 10.97460938 64.703125 C10.19677755 75.65499711 7.91564685 85.41774291 3.51171875 95.46875 C2.33130321 98.22610311 1.22018205 100.9829157 0.14453125 103.78125 C-3.55861978 113.37952738 -7.36900459 122.34234456 -13 131 C-14.84765625 130.90234375 -14.84765625 130.90234375 -17 130 C-18.48679786 126.73792112 -19.48198525 123.4212942 -20.55859375 120.00390625 C-21.72645585 116.80767214 -21.72645585 116.80767214 -24.66015625 115.58984375 C-25.43230469 115.39519531 -26.20445313 115.20054687 -27 115 C-27.0928125 116.7325 -27.0928125 116.7325 -27.1875 118.5 C-27.77804089 123.36327795 -29.82524036 127.28127842 -33 131 C-33.66 131 -34.32 131 -35 131 C-38.25917365 125.97156066 -40.41097415 122.33891316 -39.9921875 116.16796875 C-40.01377989 110.17608014 -42.15827506 104.07772881 -45.25 99 C-45.8275 98.01 -46.405 97.02 -47 96 C-46.67 95.01 -46.34 94.02 -46 93 C-43.66666667 95.33333333 -41.33333333 97.66666667 -39 100 C-31.84984855 103.38691385 -23.11540542 103.0687988 -15.75 100.5 C-7.44581607 96.67447707 -2.43454327 90.4354993 0.88720703 82.03076172 C4.72471439 71.57906878 5.44970712 61.90284036 5.33618164 50.89086914 C5.31250463 48.43798011 5.31565383 45.98617841 5.32226562 43.53320312 C5.30799358 35.95752347 5.12974975 28.69020266 3.4753418 21.25854492 C2.95732695 18.79724275 2.70698418 16.38026586 2.5 13.875 C2.08097544 9.12097585 1.12177035 4.63665078 0 0 Z " fill="#CB9546" transform="translate(97,49)"/>
<path d="M0 0 C1 3 1 3 -0.1796875 5.8203125 C-0.73914062 6.91085938 -1.29859375 8.00140625 -1.875 9.125 C-5.24751756 16.18375769 -6.30916224 21.16638825 -5.6875 28.875 C-3.72613598 32.50715559 -3.03173125 32.71483501 0.75 33.9375 C4.55160138 34.84106902 8.07985713 35.30948496 12 35 C12.04254356 36.99954746 12.04080783 39.00041636 12 41 C11.67 41.33 11.34 41.66 11 42 C11.22902366 43.7881463 11.46245821 45.57578141 11.7109375 47.36132812 C12.46304613 54.22686032 12.41576696 61.18641314 12.60546875 68.0859375 C12.64285156 69.30023438 12.68023437 70.51453125 12.71875 71.765625 C12.74904297 72.86680664 12.77933594 73.96798828 12.81054688 75.10253906 C12.97170229 77.56722007 13.33752614 79.63715441 14 82 C14.04940992 83.41641774 14.09032173 84.83314504 14.125 86.25 C14.59065342 91.43427478 16.3170625 95.77467924 18.375 100.5 C18.67937988 101.20672852 18.98375977 101.91345703 19.29736328 102.64160156 C20.87110086 106.11206722 21.76596956 107.84397971 25 110 C27.28495129 115.54916741 28.74814704 121.11986905 27 127 C24.85363177 123.78044766 24.00607692 121.06879667 22.875 117.375 C21.26841812 112.2656452 19.35983003 107.51609543 16.94189453 102.73657227 C7.60245048 84.25216686 7.00620598 63.30468365 10 43 C9.278125 43.18820313 8.55625 43.37640625 7.8125 43.5703125 C3.16327576 44.28061065 -0.73412716 42.81616368 -5 41 C-9.91621392 37.15252824 -13.51380593 32.47702423 -14.38671875 26.234375 C-14.75626622 16.29482242 -11.9587586 8.72310117 -5.5625 1.1796875 C-4 0 -4 0 0 0 Z " fill="#DCC381" transform="translate(30,42)"/>
<path d="M0 0 C3.35643577 2.19035219 4.84798587 4.12498794 6.5078125 7.75390625 C6.93707031 8.69169922 7.36632812 9.62949219 7.80859375 10.59570312 C8.24300781 11.57474609 8.67742187 12.55378906 9.125 13.5625 C9.56714844 14.51447266 10.00929688 15.46644531 10.46484375 16.44726562 C14.30471851 24.96807533 16.29250649 32.92919234 16.25 42.3125 C16.25515625 43.46363281 16.2603125 44.61476562 16.265625 45.80078125 C16.00478027 48.94242586 15.33938091 51.16710308 14 54 C12.68 53.67 11.36 53.34 10 53 C9.02194949 49.87500935 8.86755653 46.87671735 8.75976562 43.61767578 C8.44483597 34.66133167 7.06074186 26.12148371 3 18 C2.67 21.63 2.34 25.26 2 29 C1.67 29 1.34 29 1 29 C1 23 1 17 1 11 C0.67 10.34 0.34 9.68 0 9 C-0.06950541 7.45976004 -0.08452357 5.91665012 -0.0625 4.375 C-0.05347656 3.55773437 -0.04445313 2.74046875 -0.03515625 1.8984375 C-0.02355469 1.27195312 -0.01195313 0.64546875 0 0 Z " fill="#B6A582" transform="translate(106,80)"/>
<path d="M0 0 C2 1 2 1 3 3.87890625 C3.33 5.09449219 3.66 6.31007813 4 7.5625 C4.495 9.35880859 4.495 9.35880859 5 11.19140625 C5.33 12.44824219 5.66 13.70507812 6 15 C6.33990967 16.18650146 6.67981934 17.37300293 7.0300293 18.59545898 C8.24090879 23.4765647 8.40469922 28.27045791 8.51953125 33.28125 C8.55925301 34.73887756 8.55925301 34.73887756 8.59977722 36.22595215 C8.65223179 38.27649555 8.69985972 40.3271675 8.74291992 42.37792969 C8.8116914 45.46371778 8.90794299 48.54782981 9.00585938 51.6328125 C9.34379138 64.53742039 9.57747293 78.01688794 4 90 C3.01 90.99 3.01 90.99 2 92 C1.34 92.99 0.68 93.98 0 95 C-0.33 94.01 -0.66 93.02 -1 92 C-4.11785113 92.64644661 -4.11785113 92.64644661 -5 95 C-5 91.65224154 -4.53425233 91.02255644 -2.6875 88.375 C0.07824044 84.10919694 1.6631702 79.88367882 3 75 C3.33845947 73.80415283 3.67691895 72.60830566 4.02563477 71.3762207 C5.1006752 67.04387123 5.29017123 62.95919706 5.265625 58.51171875 C5.26753845 57.72787308 5.2694519 56.9440274 5.27142334 56.13642883 C5.27277548 54.48849158 5.26914745 52.84054332 5.26074219 51.19262695 C5.25007221 48.70433927 5.26064816 46.2167806 5.2734375 43.72851562 C5.27955841 36.08292889 5.15736961 28.75030595 3.47753906 21.24975586 C2.95570736 18.79133096 2.70648088 16.37823401 2.5 13.875 C2.08097544 9.12097585 1.12177035 4.63665078 0 0 Z " fill="#C99749" transform="translate(97,49)"/>
<path d="M0 0 C0.66 0 1.32 0 2 0 C1.74863281 1.44632813 1.74863281 1.44632813 1.4921875 2.921875 C1.28851563 4.18515625 1.08484375 5.4484375 0.875 6.75 C0.66617188 8.00296875 0.45734375 9.2559375 0.2421875 10.546875 C0.00381563 13.94559646 0.02465915 15.29690199 2 18 C4.0335948 19.26804566 4.0335948 19.26804566 6 20 C6.144375 18.700625 6.28875 17.40125 6.4375 16.0625 C6.875 12.125 6.875 12.125 8 11 C9.65 11 11.3 11 13 11 C13 14.63 13 18.26 13 22 C7.65937073 22.9630643 7.65937073 22.9630643 5 23 C3.1875 21.625 3.1875 21.625 2 20 C1.01 19.67 0.02 19.34 -1 19 C-1.12117188 19.67546875 -1.24234375 20.3509375 -1.3671875 21.046875 C-1.53476562 21.93890625 -1.70234375 22.8309375 -1.875 23.75 C-2.03742187 24.63171875 -2.19984375 25.5134375 -2.3671875 26.421875 C-2.96796264 28.86947744 -3.77997117 30.80599857 -5 33 C-5.66 33 -6.32 33 -7 33 C-6.95875 33.969375 -6.9175 34.93875 -6.875 35.9375 C-6.85651067 40.44889724 -7.89482578 44.64837652 -9 49 C-9.33 49 -9.66 49 -10 49 C-10 46.36 -10 43.72 -10 41 C-10.66 40.67 -11.32 40.34 -12 40 C-11.01 40 -10.02 40 -9 40 C-9 38.68 -9 37.36 -9 36 C-9.66 35.67 -10.32 35.34 -11 35 C-10.34 35 -9.68 35 -9 35 C-8.87238281 34.00355469 -8.74476562 33.00710937 -8.61328125 31.98046875 C-8.04679153 28.03091433 -7.16804268 24.17777269 -6.1875 20.3125 C-6.01444336 19.62349609 -5.84138672 18.93449219 -5.66308594 18.22460938 C-4.0770614 12.04625792 -2.1396396 6.00920058 0 0 Z " fill="#CEB675" transform="translate(51,43)"/>
<path d="M0 0 C1 3 1 3 -0.1796875 5.8203125 C-0.73914062 6.91085938 -1.29859375 8.00140625 -1.875 9.125 C-5.46690723 16.6772152 -7.17527721 21.98550122 -4.5625 30.0625 C-4.05953059 31.38194889 -3.54506872 32.69737814 -3 34 C-5.96404505 31.19195732 -8.44499019 28.81684226 -10 25 C-10.99 25.99 -11.98 26.98 -13 28 C-13.72281572 17.9608928 -13.65318323 11.09389687 -7 3 C-6.52175781 2.41734375 -6.04351562 1.8346875 -5.55078125 1.234375 C-4 0 -4 0 0 0 Z " fill="#CFBD8A" transform="translate(30,42)"/>
<path d="M0 0 C0.66 0.33 1.32 0.66 2 1 C2.03758423 2.24088379 2.03758423 2.24088379 2.07592773 3.50683594 C2.19196349 7.25471192 2.314656 11.00234125 2.4375 14.75 C2.47681641 16.05195312 2.51613281 17.35390625 2.55664062 18.6953125 C2.59853516 19.94570312 2.64042969 21.19609375 2.68359375 22.484375 C2.72025146 23.63647461 2.75690918 24.78857422 2.79467773 25.97558594 C2.96526744 28.48838644 3.32146993 30.59352558 4 33 C4.04940992 34.41641774 4.09032173 35.83314504 4.125 37.25 C4.59065342 42.43427478 6.3170625 46.77467924 8.375 51.5 C8.67937988 52.20672852 8.98375977 52.91345703 9.29736328 53.64160156 C10.87110086 57.11206722 11.76596956 58.84397971 15 61 C17.28495129 66.54916741 18.74814704 72.11986905 17 78 C14.85363177 74.78044766 14.00607692 72.06879667 12.875 68.375 C11.26841812 63.2656452 9.35983003 58.51609543 6.94189453 53.73657227 C-1.32624931 37.37245874 -2.35625933 20.18414975 -1 2 C-0.67 1.34 -0.34 0.68 0 0 Z " fill="#B1A88B" transform="translate(40,91)"/>
<path d="M0 0 C0.66 0 1.32 0 2 0 C2.04898438 0.80824219 2.09796875 1.61648437 2.1484375 2.44921875 C2.22320312 3.51785156 2.29796875 4.58648437 2.375 5.6875 C2.44460937 6.74324219 2.51421875 7.79898438 2.5859375 8.88671875 C2.98760089 11.90677269 3.74069019 14.24078054 5 17 C4.67 17 4.34 17 4 17 C4.02320312 18.00675781 4.04640625 19.01351562 4.0703125 20.05078125 C4.35242542 37.53546643 2.97643744 52.85945216 -4 69 C-4.44988281 70.11503906 -4.89976563 71.23007813 -5.36328125 72.37890625 C-7.66037703 78.06119581 -10.17598887 83.56116375 -13 89 C-14.40742022 86.18515955 -13.66652164 84.43063887 -13.0625 81.375 C-12.86785156 80.37210937 -12.67320313 79.36921875 -12.47265625 78.3359375 C-12.31667969 77.56507813 -12.16070312 76.79421875 -12 76 C-10.515 75.505 -10.515 75.505 -9 75 C-8.04010409 72.57318092 -8.04010409 72.57318092 -7.4375 69.6875 C-6.27285491 64.75914308 -4.80698506 61.21047759 -2 57 C1.53847062 44.54073747 1.20248269 32.31258892 0.6875 19.5 C0.62404703 17.59770908 0.56218858 15.69536427 0.50195312 13.79296875 C0.35295096 9.19448614 0.1825987 4.59726602 0 0 Z " fill="#9B8565" transform="translate(104,77)"/>
<path d="M0 0 C7.48113208 -0.36792453 7.48113208 -0.36792453 9.71875 1.21875 C11.31622732 3.43963311 11.49095551 4.97518603 11.6875 7.6875 C11.78611328 8.89986328 11.78611328 8.89986328 11.88671875 10.13671875 C11.92410156 10.75160156 11.96148437 11.36648437 12 12 C13.32 12 14.64 12 16 12 C16.66 12 17.32 12 18 12 C18.66 10.35 19.32 8.7 20 7 C21 10 21 10 20.00390625 12.26171875 C19.52824219 13.06222656 19.05257812 13.86273438 18.5625 14.6875 C18.08941406 15.49574219 17.61632812 16.30398437 17.12890625 17.13671875 C16.75636719 17.75160156 16.38382813 18.36648437 16 19 C14.15234375 18.90234375 14.15234375 18.90234375 12 18 C10.51320214 14.73792112 9.51801475 11.4212942 8.44140625 8.00390625 C7.27354415 4.80767214 7.27354415 4.80767214 4.33984375 3.58984375 C3.56769531 3.39519531 2.79554687 3.20054687 2 3 C1.938125 4.155 1.87625 5.31 1.8125 6.5 C1.22195911 11.36327795 -0.82524036 15.28127842 -4 19 C-4.66 19 -5.32 19 -6 19 C-6.87191947 17.61518672 -7.72190384 16.21654754 -8.5625 14.8125 C-9.03816406 14.03519531 -9.51382813 13.25789062 -10.00390625 12.45703125 C-11.19605797 9.51639033 -10.88855164 7.99553637 -10 5 C-9.67 5 -9.34 5 -9 5 C-9 6.65 -9 8.3 -9 10 C-8.01 10.33 -7.02 10.66 -6 11 C-5.67 11.66 -5.34 12.32 -5 13 C-4.67 11.35 -4.34 9.7 -4 8 C-3.34 8 -2.68 8 -2 8 C-1.34 5.36 -0.68 2.72 0 0 Z " fill="#A48D6C" transform="translate(68,161)"/>
<path d="M0 0 C5.25757529 3.40557814 6.83913305 8.38221107 9.3125 13.9375 C9.77978516 14.93974609 10.24707031 15.94199219 10.72851562 16.97460938 C11.38303711 18.42383789 11.38303711 18.42383789 12.05078125 19.90234375 C12.64886597 21.22480103 12.64886597 21.22480103 13.2590332 22.57397461 C14.06504337 25.21296076 13.94395499 26.44757831 13 29 C12.34 29 11.68 29 11 29 C10.34 29.66 9.68 30.32 9 31 C8.76925781 30.16597656 8.53851563 29.33195312 8.30078125 28.47265625 C6.72921376 23.04981665 5.2502834 18.06242039 2.25 13.25 C-0.51265946 8.69625857 -0.41672874 5.25078213 0 0 Z " fill="#C3AE7E" transform="translate(106,80)"/>
<path d="M0 0 C0.33 0 0.66 0 1 0 C1.07516846 1.04865234 1.15033691 2.09730469 1.2277832 3.17773438 C1.51212477 7.09991437 1.81224748 11.02075938 2.11694336 14.94140625 C2.24619531 16.63249289 2.37127036 18.32390454 2.49194336 20.015625 C2.66700803 22.45932613 2.85749083 24.90143081 3.05078125 27.34375 C3.10091873 28.08991577 3.15105621 28.83608154 3.20271301 29.6048584 C3.64058558 34.87480567 5.0016557 39.10323342 7 44 C7.40615641 45.69672442 7.7701581 47.40500784 8.0625 49.125 C8.75296714 52.8848547 9.67480289 56.40303642 11 60 C5.63297588 55.51676728 2.68196229 46.65104981 1.42578125 39.92578125 C1.27660738 38.25063207 1.16390586 36.57138754 1.10546875 34.890625 C1.12038035 32.91017647 1.12038035 32.91017647 0 31 C-0.08586809 28.67583704 -0.10711043 26.34916693 -0.09765625 24.0234375 C-0.09553383 22.99556625 -0.09553383 22.99556625 -0.09336853 21.94692993 C-0.08776675 19.75624239 -0.07521406 17.5656567 -0.0625 15.375 C-0.05748522 13.89062648 -0.05292228 12.40625135 -0.04882812 10.921875 C-0.03779677 7.28121685 -0.02053099 3.64061836 0 0 Z " fill="#EFCE6F" transform="translate(42,91)"/>
<path d="M0 0 C3 1 3 1 4.3515625 3.109375 C4.98191406 4.41648437 4.98191406 4.41648437 5.625 5.75 C6.05039063 6.61109375 6.47578125 7.4721875 6.9140625 8.359375 C7.96630086 10.91805532 8.55903688 13.27582783 9 16 C9.99 16 10.98 16 12 16 C12.103125 15.0925 12.20625 14.185 12.3125 13.25 C13.00414949 9.98038425 13.82134921 8.46282263 16 6 C15.40546697 15.59453303 15.40546697 15.59453303 12 19 C9.67578125 18.90234375 9.67578125 18.90234375 7 18 C5.41796875 15.12890625 5.41796875 15.12890625 4.1875 11.5625 C3.55908203 9.80099609 3.55908203 9.80099609 2.91796875 8.00390625 C2 5 2 5 2 3 C1.34 3 0.68 3 0 3 C-0.24492188 3.66386719 -0.48984375 4.32773437 -0.7421875 5.01171875 C-2.31309331 8.7438397 -4.19789136 12.25449907 -6.125 15.8125 C-6.49753906 16.50537109 -6.87007812 17.19824219 -7.25390625 17.91210938 C-8.16690377 19.60934836 -9.08312716 21.30485138 -10 23 C-10.69921875 21.43359375 -10.69921875 21.43359375 -11 19 C-10.03546238 16.55514482 -9.03534281 14.36961298 -7.8125 12.0625 C-7.50763672 11.45470703 -7.20277344 10.84691406 -6.88867188 10.22070312 C-4.95191575 6.45681858 -2.74926719 3.21255834 0 0 Z " fill="#948B71" transform="translate(64,19)"/>
<path d="M0 0 C1.2375 0.2475 1.2375 0.2475 2.5 0.5 C9.40949424 1.56744457 9.40949424 1.56744457 16 0 C13.75232198 8.12229102 13.75232198 8.12229102 11.125 11.1875 C9 12 9 12 6.3125 11.25 C4 10 4 10 3 9 C2.95919217 7.00041636 2.95745644 4.99954746 3 3 C2.01 3 1.02 3 0 3 C0 2.01 0 1.02 0 0 Z " fill="#CF995C" transform="translate(64,68)"/>
<path d="M0 0 C2 1 2 1 3 3.87890625 C3.33 5.09449219 3.66 6.31007813 4 7.5625 C4.495 9.35880859 4.495 9.35880859 5 11.19140625 C5.33 12.44824219 5.66 13.70507812 6 15 C6.3511084 16.21099365 6.7022168 17.4219873 7.06396484 18.66967773 C8.18970109 23.20576524 8.16592796 27.44781031 7.9765625 32.09375 C7.95153656 32.92588013 7.92651062 33.75801025 7.90072632 34.61535645 C7.81928715 37.24403355 7.72240954 39.87187124 7.625 42.5 C7.56668241 44.29423778 7.50938096 46.0885089 7.453125 47.8828125 C7.31382323 52.25568133 7.16068415 56.62786679 7 61 C6.67 61 6.34 61 6 61 C5.98018066 60.11852295 5.96036133 59.2370459 5.93994141 58.32885742 C5.86105858 55.00553707 5.77434786 51.68260052 5.68261719 48.35961914 C5.64473019 46.93131152 5.60981351 45.50292147 5.578125 44.07446289 C5.40537212 36.37886179 5.0791143 28.89683894 3.46435547 21.33764648 C2.97020655 18.85001457 2.71075672 16.40127056 2.5 13.875 C2.08097544 9.12097585 1.12177035 4.63665078 0 0 Z " fill="#C4A865" transform="translate(97,49)"/>
<path d="M0 0 C2.64 0 5.28 0 8 0 C8 0.33 8 0.66 8 1 C6.02 1.33 4.04 1.66 2 2 C1.855625 2.886875 1.71125 3.77375 1.5625 4.6875 C1.376875 5.780625 1.19125 6.87375 1 8 C0.8453125 9.2375 0.8453125 9.2375 0.6875 10.5 C-0.2386578 13.86784655 -1.88560979 16.24488548 -4 19 C-4.66 19 -5.32 19 -6 19 C-6.87191947 17.61518672 -7.72190384 16.21654754 -8.5625 14.8125 C-9.03816406 14.03519531 -9.51382813 13.25789062 -10.00390625 12.45703125 C-11.19605797 9.51639033 -10.88855164 7.99553637 -10 5 C-9.67 5 -9.34 5 -9 5 C-9 6.65 -9 8.3 -9 10 C-8.01 10.33 -7.02 10.66 -6 11 C-5.67 11.66 -5.34 12.32 -5 13 C-4.67 11.35 -4.34 9.7 -4 8 C-3.34 8 -2.68 8 -2 8 C-1.34 5.36 -0.68 2.72 0 0 Z " fill="#BB9768" transform="translate(68,161)"/>
<path d="M0 0 C0.66 0.33 1.32 0.66 2 1 C2.02907584 5.3958194 2.0468244 9.79161399 2.0625 14.1875 C2.07087891 15.43337891 2.07925781 16.67925781 2.08789062 17.96289062 C2.09111328 19.16494141 2.09433594 20.36699219 2.09765625 21.60546875 C2.10289307 22.71043701 2.10812988 23.81540527 2.11352539 24.95385742 C2.00901923 27.75799379 1.64097959 30.27417329 1 33 C0.67 33 0.34 33 0 33 C-1.16091503 26.55968568 -1.14845125 20.21867427 -1.125 13.6875 C-1.12886719 12.59115234 -1.13273437 11.49480469 -1.13671875 10.36523438 C-1.13542969 9.32044922 -1.13414063 8.27566406 -1.1328125 7.19921875 C-1.13112061 5.77355591 -1.13112061 5.77355591 -1.12939453 4.3190918 C-1 2 -1 2 0 0 Z " fill="#CAC0A2" transform="translate(40,91)"/>
<path d="M0 0 C0.66 0.33 1.32 0.66 2 1 C2.625 4.0625 2.625 4.0625 3 7 C3.66 5.68 4.32 4.36 5 3 C5.05428973 5.22889496 5.09292338 7.45817471 5.125 9.6875 C5.14820312 10.92886719 5.17140625 12.17023438 5.1953125 13.44921875 C5.01032021 16.81237857 4.45767895 18.9985587 3 22 C2.01 21.67 1.02 21.34 0 21 C0 19.68 0 18.36 0 17 C-0.22882813 13.52533288 -0.46813896 10.05220884 -0.73242188 6.58007812 C-0.86060126 4.72233157 -0.93481166 2.86102195 -1 1 C-0.67 0.67 -0.34 0.34 0 0 Z " fill="#E8C984" transform="translate(117,112)"/>
<path d="M0 0 C2.66739588 2.66739588 2.5255312 4.5389762 3 8.25 C3.57885398 12.73611833 4.45255986 16.74453962 6 21 C3.03595495 18.19195732 0.55500981 15.81684226 -1 12 C-1.99 12.99 -2.98 13.98 -4 15 C-4 11.04 -4 7.08 -4 3 C-2.68 2.67 -1.36 2.34 0 2 C0 1.34 0 0.68 0 0 Z " fill="#D3B768" transform="translate(21,55)"/>
<path d="M0 0 C0.66 0 1.32 0 2 0 C2.07347656 1.21236328 2.07347656 1.21236328 2.1484375 2.44921875 C2.22320312 3.51785156 2.29796875 4.58648437 2.375 5.6875 C2.44460937 6.74324219 2.51421875 7.79898438 2.5859375 8.88671875 C2.98760089 11.90677269 3.74069019 14.24078054 5 17 C4.67 17 4.34 17 4 17 C4.01160156 18.16917969 4.02320312 19.33835937 4.03515625 20.54296875 C4.04453913 22.09114423 4.0536388 23.63932145 4.0625 25.1875 C4.07087891 25.95642578 4.07925781 26.72535156 4.08789062 27.51757812 C4.10491934 31.48526789 3.98604115 35.12571234 3 39 C0.49557888 35.24336832 0.65114563 32.18991875 0.5859375 27.83203125 C0.56657135 27.03721848 0.5472052 26.2424057 0.5272522 25.42350769 C0.46750558 22.88661405 0.42109117 20.34967491 0.375 17.8125 C0.33681565 16.09177716 0.29776365 14.37107335 0.2578125 12.65039062 C0.16180821 8.43374835 0.07775924 4.2170166 0 0 Z " fill="#917446" transform="translate(104,77)"/>
<path d="M0 0 C3.68754757 0.49831724 5.60490662 1.10067643 8 4 C6.375 9.75 6.375 9.75 3 12 C0.51953125 12.1953125 0.51953125 12.1953125 -2.1875 12.125 C-3.08855469 12.10695313 -3.98960938 12.08890625 -4.91796875 12.0703125 C-5.60503906 12.04710938 -6.29210937 12.02390625 -7 12 C-7 11.67 -7 11.34 -7 11 C-4.36 10.67 -1.72 10.34 1 10 C0.67 6.7 0.34 3.4 0 0 Z " fill="#DCBF6C" transform="translate(87,55)"/>
<path d="M0 0 C1.8125 0.1875 1.8125 0.1875 4 1 C5.05376993 2.63320137 6.04630516 4.30641093 7 6 C7.495 6.80179688 7.99 7.60359375 8.5 8.4296875 C16.5814433 21.60412371 16.5814433 21.60412371 16 28 C14.04143488 26.04143488 13.28952674 24.7375204 12.16015625 22.26171875 C11.81919922 21.52373047 11.47824219 20.78574219 11.12695312 20.02539062 C10.77568359 19.25388672 10.42441406 18.48238281 10.0625 17.6875 C7.90935389 12.97774254 5.78818128 8.37893047 3 4 C2.01 4.66 1.02 5.32 0 6 C0 4.02 0 2.04 0 0 Z " fill="#8F8467" transform="translate(80,18)"/>
<path d="M0 0 C0.99 0 1.98 0 3 0 C3.12375 1.11375 3.2475 2.2275 3.375 3.375 C3.6465813 7.03103677 3.6465813 7.03103677 6 9 C7.01691264 10.99145391 8.01642648 12.99187074 9 15 C9.99 16.485 9.99 16.485 11 18 C10.01 17.67 9.02 17.34 8 17 C7.34 17.66 6.68 18.32 6 19 C5.071875 17.824375 5.071875 17.824375 4.125 16.625 C2.10141339 14.03162353 2.10141339 14.03162353 0 12 C-0.1953125 9.1796875 -0.1953125 9.1796875 -0.125 5.875 C-0.10695313 4.77929688 -0.08890625 3.68359375 -0.0703125 2.5546875 C-0.04710937 1.71164063 -0.02390625 0.86859375 0 0 Z " fill="#ECD289" transform="translate(16,59)"/>
<path d="M0 0 C1.65 0 3.3 0 5 0 C5 3.63 5 7.26 5 11 C3.02 11 1.04 11 -1 11 C-1.02688151 9.35425434 -1.04634123 7.70838587 -1.0625 6.0625 C-1.07410156 5.14597656 -1.08570313 4.22945312 -1.09765625 3.28515625 C-1 1 -1 1 0 0 Z " fill="#100A04" transform="translate(59,54)"/>
<path d="M0 0 C0.5625 1.9375 0.5625 1.9375 1 4 C0.67 4.33 0.34 4.66 0 5 C-0.04092937 7.33297433 -0.04241723 9.66705225 0 12 C-0.33 12 -0.66 12 -1 12 C-1 10.02 -1 8.04 -1 6 C-1.721875 6.185625 -2.44375 6.37125 -3.1875 6.5625 C-6.12826973 7.01995307 -8.14103058 6.73516357 -11 6 C-11 5.34 -11 4.68 -11 4 C-12.32 3.34 -13.64 2.68 -15 2 C-11.84493858 1.06380187 -9.03413498 0.8942877 -5.75 0.9375 C-4.85796875 0.94652344 -3.9659375 0.95554687 -3.046875 0.96484375 C-2.37140625 0.97644531 -1.6959375 0.98804687 -1 1 C-0.67 1.66 -0.34 2.32 0 3 C0 2.01 0 1.02 0 0 Z " fill="#F3D276" transform="translate(41,79)"/>
<path d="M0 0 C1.65 0 3.3 0 5 0 C5 3.3 5 6.6 5 10 C3.02 10 1.04 10 -1 10 C-1.125 2.25 -1.125 2.25 0 0 Z " fill="#140F06" transform="translate(82,55)"/>
<path d="M0 0 C2.4375 1.1875 2.4375 1.1875 5 3 C5.8125 5.6875 5.8125 5.6875 6 8 C3.12835434 10.70272533 1.69008159 11.94791837 -2.3125 12.25 C-3.199375 12.1675 -4.08625 12.085 -5 12 C-5 11.67 -5 11.34 -5 11 C-3.35 11 -1.7 11 0 11 C0 7.37 0 3.74 0 0 Z " fill="#B6A26A" transform="translate(64,54)"/>
<path d="M0 0 C0.33 0 0.66 0 1 0 C1 1.65 1 3.3 1 5 C1.66 5 2.32 5 3 5 C3.17015625 5.7734375 3.3403125 6.546875 3.515625 7.34375 C4.68503376 12.36971956 5.81817076 17.04843247 8.25 21.625 C8.8275 22.73875 9.405 23.8525 10 25 C9.67 25.66 9.34 26.32 9 27 C7.86722732 24.81623234 6.74377211 22.62842872 5.625 20.4375 C5.30789062 19.82841797 4.99078125 19.21933594 4.6640625 18.59179688 C1.59133344 12.54236155 -0.33557134 6.87921245 0 0 Z " fill="#EED99C" transform="translate(43,124)"/>
<path d="M0 0 C1.65 0 3.3 0 5 0 C4.67 3.3 4.34 6.6 4 10 C2.35 9.01 0.7 8.02 -1 7 C-0.67 4.69 -0.34 2.38 0 0 Z " fill="#E5D8A7" transform="translate(54,54)"/>
<path d="M0 0 C2 1 2 1 2.88671875 3.29296875 C5.5308846 12.8506609 5.5308846 12.8506609 4 18 C0.4317767 12.64766505 -0.32665309 6.36973531 0 0 Z " fill="#CFBB96" transform="translate(53,151)"/>
<path d="M0 0 C0.66 0 1.32 0 2 0 C1.71848084 2.12636813 1.42446737 4.25108528 1.125 6.375 C0.96257813 7.55835938 0.80015625 8.74171875 0.6328125 9.9609375 C0 13 0 13 -2 15 C-2.33 14.67 -2.66 14.34 -3 14 C-2.57731286 9.01229179 -1.7672875 4.71276667 0 0 Z " fill="#AC9C6E" transform="translate(51,43)"/>
<path d="M0 0 C0.66 0.66 1.32 1.32 2 2 C2.66 1.34 3.32 0.68 4 0 C5.03048037 1.6188996 6.04914678 3.24532489 7.0625 4.875 C7.63097656 5.77992187 8.19945313 6.68484375 8.78515625 7.6171875 C9.38650391 8.79667969 9.38650391 8.79667969 10 10 C9.67 10.66 9.34 11.32 9 12 C8.401875 11.030625 7.80375 10.06125 7.1875 9.0625 C5.28872491 5.76947958 5.28872491 5.76947958 2 5 C1.67 5.99 1.34 6.98 1 8 C0.34 7.34 -0.32 6.68 -1 6 C-0.625 2.875 -0.625 2.875 0 0 Z " fill="#E7CD8A" transform="translate(79,21)"/>
<path d="M0 0 C2 2 2 2 4 5 C4.66 5.66 5.32 6.32 6 7 C5.625 9.125 5.625 9.125 5 11 C4.34 11 3.68 11 3 11 C2.34 11.66 1.68 12.32 1 13 C0.83147753 11.39602723 0.66525114 9.7918131 0.5 8.1875 C0.4071875 7.29417969 0.314375 6.40085937 0.21875 5.48046875 C0 3 0 3 0 0 Z " fill="#E6CD8F" transform="translate(114,98)"/>
<path d="M0 0 C0.391875 0.556875 0.78375 1.11375 1.1875 1.6875 C5.29864133 6.93274928 8.83554118 9.70343691 15 12 C15 12.33 15 12.66 15 13 C7.76520913 12.63212928 7.76520913 12.63212928 4.125 9.625 C0 4.52941176 0 4.52941176 0 0 Z " fill="#B2A579" transform="translate(18,71)"/>
<path d="M0 0 C1 3 1 3 0.00390625 5.26171875 C-0.47175781 6.06222656 -0.94742188 6.86273438 -1.4375 7.6875 C-2.14712891 8.89986328 -2.14712891 8.89986328 -2.87109375 10.13671875 C-3.42990234 11.05904297 -3.42990234 11.05904297 -4 12 C-5.32 11.67 -6.64 11.34 -8 11 C-8 9.35 -8 7.7 -8 6 C-6.515 6.99 -6.515 6.99 -5 8 C-3.35 5.36 -1.7 2.72 0 0 Z " fill="#918371" transform="translate(88,168)"/>
<path d="M0 0 C1.0494188 3.14825641 0.98655124 3.98701503 0.1875 7.0625 C0.01605469 7.75472656 -0.15539062 8.44695313 -0.33203125 9.16015625 C-1 11 -1 11 -3 13 C-5.625 12.625 -5.625 12.625 -8 12 C-7.67 11.01 -7.34 10.02 -7 9 C-7 9.66 -7 10.32 -7 11 C-5.68 11 -4.36 11 -3 11 C-2.814375 9.39125 -2.814375 9.39125 -2.625 7.75 C-2.10356064 4.62136385 -1.59911746 2.66519576 0 0 Z " fill="#917E52" transform="translate(79,25)"/>
<path d="M0 0 C0.33 0 0.66 0 1 0 C1.27263672 0.95712891 1.27263672 0.95712891 1.55078125 1.93359375 C1.80214844 2.75988281 2.05351563 3.58617187 2.3125 4.4375 C2.55613281 5.26121094 2.79976562 6.08492187 3.05078125 6.93359375 C3.36402344 7.61550781 3.67726563 8.29742187 4 9 C4.99 9.33 5.98 9.66 7 10 C6.67 11.32 6.34 12.64 6 14 C5.34 14 4.68 14 4 14 C3.12808053 12.61518672 2.27809616 11.21654754 1.4375 9.8125 C0.96183594 9.03519531 0.48617187 8.25789062 -0.00390625 7.45703125 C-1.19605797 4.51639033 -0.88855164 2.99553637 0 0 Z " fill="#99876E" transform="translate(58,166)"/>
<path d="M0 0 C0.33 0 0.66 0 1 0 C1.05428973 2.22889496 1.09292338 4.45817471 1.125 6.6875 C1.14820312 7.92886719 1.17140625 9.17023438 1.1953125 10.44921875 C1.01032021 13.81237857 0.45767895 15.9985587 -1 19 C-1.99 18.67 -2.98 18.34 -4 18 C-3.34 18 -2.68 18 -2 18 C-1.7834375 16.0509375 -1.7834375 16.0509375 -1.5625 14.0625 C-1.04166667 9.375 -0.52083333 4.6875 0 0 Z " fill="#D6CEBD" transform="translate(121,115)"/>
<path d="M0 0 C0.21824777 6.0018137 -0.4943096 11.19233704 -2 17 C-2.33 17 -2.66 17 -3 17 C-3 14.36 -3 11.72 -3 9 C-3.66 8.67 -4.32 8.34 -5 8 C-4.01 8 -3.02 8 -2 8 C-2 6.68 -2 5.36 -2 4 C-2.66 3.67 -3.32 3.34 -4 3 C-1.125 0 -1.125 0 0 0 Z " fill="#806C3F" transform="translate(44,75)"/>
<path d="M0 0 C1.65 0.99 3.3 1.98 5 3 C4.67 4.32 4.34 5.64 4 7 C2.68 7.33 1.36 7.66 0 8 C0 5.36 0 2.72 0 0 Z " fill="#FAF6DF" transform="translate(88,56)"/>
<path d="M0 0 C0.33 0 0.66 0 1 0 C1.18175781 1.19496094 1.18175781 1.19496094 1.3671875 2.4140625 C2.61883475 10.34501378 2.61883475 10.34501378 5 18 C2.5543241 16.34916877 1.42418175 15.52854725 0 13 C-0.44894828 8.63727911 -0.28797383 4.37080273 0 0 Z " fill="#B7A778" transform="translate(22,58)"/>
<path d="M0 0 C3.37362116 2.45354267 3.69133551 5.3694707 4.375 9.2578125 C4.58125 9.83273438 4.7875 10.40765625 5 11 C5.99 11.33 6.98 11.66 8 12 C6.68 12 5.36 12 4 12 C4 11.34 4 10.68 4 10 C3.34 10 2.68 10 2 10 C1.01 7.03 0.02 4.06 -1 1 C-0.67 0.67 -0.34 0.34 0 0 Z " fill="#B3AA8E" transform="translate(68,24)"/>
<path d="M0 0 C0 2.64 0 5.28 0 8 C-1.65 8 -3.3 8 -5 8 C-4.40138258 5.64828869 -3.73075648 3.3140622 -3 1 C-1 0 -1 0 0 0 Z " fill="#050202" transform="translate(87,57)"/>
<path d="M0 0 C0.66 0.33 1.32 0.66 2 1 C2 3.31 2 5.62 2 8 C1.67 8 1.34 8 1 8 C1 6.02 1 4.04 1 2 C0.278125 2.185625 -0.44375 2.37125 -1.1875 2.5625 C-4.12826973 3.01995307 -6.14103058 2.73516357 -9 2 C-5.54337669 -0.30441554 -4.05142119 -0.25860135 0 0 Z " fill="#D2C8A4" transform="translate(39,83)"/>
<path d="M0 0 C0.66 0.66 1.32 1.32 2 2 C1.625 4.625 1.625 4.625 1 7 C-0.98 7.33 -2.96 7.66 -5 8 C-4.67 6.35 -4.34 4.7 -4 3 C-3.34 3.33 -2.68 3.66 -2 4 C-1.34 2.68 -0.68 1.36 0 0 Z " fill="#ECD590" transform="translate(22,50)"/>
<path d="M0 0 C1.32 0 2.64 0 4 0 C5 3 5 3 4 6 C3.34 6 2.68 6 2 6 C2 5.01 2 4.02 2 3 C0.02 3.99 0.02 3.99 -2 5 C-1.125 1.125 -1.125 1.125 0 0 Z " fill="#BCB496" transform="translate(26,42)"/>
<path d="M0 0 C0.33 0 0.66 0 1 0 C0.67 4.29 0.34 8.58 0 13 C-0.99 13 -1.98 13 -3 13 C-2.17812739 8.61667943 -1.09845718 4.32059823 0 0 Z " fill="#B99564" transform="translate(91,155)"/>
<path d="M0 0 C0.99 0.33 1.98 0.66 3 1 C3.33 3.31 3.66 5.62 4 8 C3.01 8.495 3.01 8.495 2 9 C1.01 6.36 0.02 3.72 -1 1 C-0.67 0.67 -0.34 0.34 0 0 Z " fill="#E6C77E" transform="translate(111,94)"/>
<path d="M0 0 C0.99 1.485 0.99 1.485 2 3 C2.66 2.67 3.32 2.34 4 2 C4.33 3.98 4.66 5.96 5 8 C3.68 8.33 2.36 8.66 1 9 C0.67 6.03 0.34 3.06 0 0 Z " fill="#D0B97F" transform="translate(93,41)"/>
<path d="M0 0 C1.43088528 2.86177057 0.59991697 4.93375773 0 8 C-1.32 7.34 -2.64 6.68 -4 6 C-2.84826645 3.53199953 -1.95216435 1.95216435 0 0 Z " fill="#FBF6D4" transform="translate(80,56)"/>
<path d="M0 0 C1.32 0.99 2.64 1.98 4 3 C3.34 4.32 2.68 5.64 2 7 C1.34 7 0.68 7 0 7 C0 4.69 0 2.38 0 0 Z " fill="#FBF6D8" transform="translate(65,56)"/>
<path d="M0 0 C2.475 0.495 2.475 0.495 5 1 C5 1.99 5 2.98 5 4 C3.35 4 1.7 4 0 4 C0 2.68 0 1.36 0 0 Z " fill="#D89887" transform="translate(70,72)"/>
</svg>
