<?xml version="1.0" encoding="UTF-8"?>
<svg version="1.1" xmlns="http://www.w3.org/2000/svg" width="515" height="290">
<path d="M0 0 C7.57019342 7.75043612 12.625 17.66824903 12.625 28.6875 C11.635 28.6875 10.645 28.6875 9.625 28.6875 C9.625 31.6575 9.625 34.6275 9.625 37.6875 C8.635 38.0175 7.645 38.3475 6.625 38.6875 C6.295 38.0275 5.965 37.3675 5.625 36.6875 C3.89896538 41.9415494 3.23827018 46.6033398 3.25 52.125 C3.25088623 52.8778125 3.25177246 53.630625 3.25268555 54.40625 C3.37525326 60.13022451 4.57780428 63.85102566 7.625 68.6875 C10.36214284 74.4599958 11.13214945 79.02900278 9.546875 85.2734375 C7.97474612 89.39028347 5.55891182 92.44262057 2.625 95.6875 C2.08617187 96.30625 1.54734375 96.925 0.9921875 97.5625 C-4.91853669 103.94058377 -11.04046526 107.51619625 -19.67578125 108.82421875 C-20.74610596 108.99010498 -21.81643066 109.15599121 -22.91918945 109.3269043 C-23.72960693 109.44590088 -24.54002441 109.56489746 -25.375 109.6875 C-25.74040942 135.43873521 -25.74040942 135.43873521 -22.375 160.6875 C-22.2925 161.8425 -22.21 162.9975 -22.125 164.1875 C-21.19557046 168.52483783 -19.77073074 169.03717357 -16.375 171.6875 C-15.64629528 174.00220912 -14.98260482 176.3380947 -14.375 178.6875 C-11.86420911 183.01644981 -8.93596558 186.20566699 -5.375 189.6875 C-3.15634873 192.24305757 -0.94505197 194.80361056 1.24609375 197.3828125 C3.86093487 199.91607401 6.32750429 201.18742793 9.625 202.6875 C10.615 203.3475 11.605 204.0075 12.625 204.6875 C15.76268811 205.61153301 18.9794956 206.18072671 22.1875 206.8125 C23.04408203 206.99425781 23.90066406 207.17601562 24.78320312 207.36328125 C30.09371164 208.42618213 35.00025356 208.83390652 40.41381836 208.55810547 C43.76779962 208.75437466 45.87974039 209.91243001 48.1875 212.3125 C49.65478279 214.03311132 49.65478279 214.03311132 52.625 213.6875 C50.89405792 208.14061742 48.90919055 202.92670512 46.296875 197.73046875 C45.5008006 195.30984719 45.79380685 194.05853175 46.625 191.6875 C53.5 192.5625 53.5 192.5625 54.625 193.6875 C54.81017885 195.41289663 54.94799978 197.14347627 55.0625 198.875 C55.41210885 205.05611958 55.41210885 205.05611958 57.625 210.6875 C59.86204585 211.44211227 62.03556007 211.82779233 64.3671875 212.19140625 C67.50038401 212.87984216 69.32085168 214.52299703 71.625 216.6875 C75.36380993 218.55690497 79.9222901 218.04419896 84.046875 218.2109375 C87.625 218.6875 87.625 218.6875 90.44284058 220.19897461 C93.99327424 221.85976842 96.22322155 222.03551155 100.11767578 221.98046875 C101.38563995 221.97055908 102.65360413 221.96064941 103.95999146 221.95043945 C104.96467657 221.93190414 104.96467657 221.93190414 105.98965836 221.91299438 C108.10003978 221.87445716 110.2098511 221.8550981 112.32052612 221.84057617 C116.79727478 221.80642092 121.27354957 221.74866352 125.75 221.6875 C130.94645743 221.61662027 136.14264626 221.55550261 141.33947372 221.51968384 C143.41598449 221.50027414 145.49166405 221.46276498 147.56790161 221.42456055 C148.82956146 221.41465088 150.09122131 221.40474121 151.39111328 221.39453125 C153.05607346 221.37096558 153.05607346 221.37096558 154.75466919 221.34692383 C158.00218597 221.73225462 159.37381588 222.33400267 161.625 224.6875 C162.42525416 231.43249931 161.24285805 233.70654521 158.625 240.6875 C69.195 240.6875 -20.235 240.6875 -112.375 240.6875 C-112.045 239.6975 -111.715 238.7075 -111.375 237.6875 C-110.31296208 229.96570318 -110.22052701 222.21836999 -110.25 214.4375 C-110.24613281 213.40109375 -110.24226563 212.3646875 -110.23828125 211.296875 C-110.24507421 205.97119689 -110.58556095 200.96003088 -111.375 195.6875 C-112.44611753 181.24249946 -113.0231328 166.97866294 -110.375 152.6875 C-111.035 152.6875 -111.695 152.6875 -112.375 152.6875 C-112.375 154.0075 -112.375 155.3275 -112.375 156.6875 C-113.365 156.6875 -114.355 156.6875 -115.375 156.6875 C-124.00397159 138.77467951 -119.05379239 117.73495722 -115.79589844 99.0378418 C-114.06622776 89.10127041 -112.61380766 79.18868267 -111.48675537 69.16564941 C-106.38914103 23.8824334 -106.38914103 23.8824334 -92.375 8.6875 C-91.86582031 8.08808594 -91.35664062 7.48867188 -90.83203125 6.87109375 C-68.7979463 -17.44800742 -25.78408945 -19.22207183 0 0 Z " fill="#D1767B" transform="translate(193.375,49.3125)"/>
<path d="M0 0 C7.57019342 7.75043612 12.625 17.66824903 12.625 28.6875 C11.635 28.6875 10.645 28.6875 9.625 28.6875 C9.625 31.6575 9.625 34.6275 9.625 37.6875 C8.635 38.0175 7.645 38.3475 6.625 38.6875 C6.295 38.0275 5.965 37.3675 5.625 36.6875 C3.89896538 41.9415494 3.23827018 46.6033398 3.25 52.125 C3.25088623 52.8778125 3.25177246 53.630625 3.25268555 54.40625 C3.37525326 60.13022451 4.57780428 63.85102566 7.625 68.6875 C10.36214284 74.4599958 11.13214945 79.02900278 9.546875 85.2734375 C7.97474612 89.39028347 5.55891182 92.44262057 2.625 95.6875 C2.08617187 96.30625 1.54734375 96.925 0.9921875 97.5625 C-4.91853669 103.94058377 -11.04046526 107.51619625 -19.67578125 108.82421875 C-20.74610596 108.99010498 -21.81643066 109.15599121 -22.91918945 109.3269043 C-23.72960693 109.44590088 -24.54002441 109.56489746 -25.375 109.6875 C-25.34470703 110.54279297 -25.31441406 111.39808594 -25.28320312 112.27929688 C-24.18491939 143.6564183 -24.18491939 143.6564183 -24.375 156.6875 C-27.75622453 155.13921854 -29.16838545 153.66163266 -31.375 150.6875 C-32.365 150.3575 -33.355 150.0275 -34.375 149.6875 C-33.715 152.3275 -33.055 154.9675 -32.375 157.6875 C-33.365 157.6875 -34.355 157.6875 -35.375 157.6875 C-35.705 158.3475 -36.035 159.0075 -36.375 159.6875 C-36.705 159.0275 -37.035 158.3675 -37.375 157.6875 C-39.27033342 157.22226937 -39.27033342 157.22226937 -41.4375 157.0625 C-43.3865625 156.876875 -43.3865625 156.876875 -45.375 156.6875 C-45.375 156.3575 -45.375 156.0275 -45.375 155.6875 C-42.735 155.3575 -40.095 155.0275 -37.375 154.6875 C-37.375 153.3675 -37.375 152.0475 -37.375 150.6875 C-36.715 150.6875 -36.055 150.6875 -35.375 150.6875 C-37.00633272 145.48111899 -38.6413408 140.44168991 -41.375 135.6875 C-42.035 135.3575 -42.695 135.0275 -43.375 134.6875 C-43.375 136.3375 -43.375 137.9875 -43.375 139.6875 C-49.19462862 130.95805707 -49.01683255 119.90246686 -49.5 109.75 C-49.60862032 107.65362789 -49.72066282 105.55751055 -49.8366394 103.46153259 C-49.9395045 101.57895122 -50.03278369 99.69585319 -50.12548828 97.81274414 C-50.32708448 95.28766293 -50.65011208 93.10192285 -51.375 90.6875 C-51.7875 91.71488281 -52.2 92.74226563 -52.625 93.80078125 C-58.37102774 107.7489091 -65.09823523 117.54762917 -77.375 126.6875 C-78.035 126.3575 -78.695 126.0275 -79.375 125.6875 C-78.70404297 124.77871094 -78.70404297 124.77871094 -78.01953125 123.8515625 C-73.82596521 118.03958398 -70.37850467 112.19278662 -67.375 105.6875 C-67.85066406 106.28175781 -68.32632813 106.87601562 -68.81640625 107.48828125 C-75.89838435 115.87449104 -84.2829736 121.87377815 -93.31445312 128.00390625 C-97.86652998 131.1426176 -100.10406561 133.76538174 -102.375 138.6875 C-102.931875 139.8425 -103.48875 140.9975 -104.0625 142.1875 C-105.39081298 145.72966794 -105.99199975 148.93409755 -106.375 152.6875 C-108.355 152.6875 -110.335 152.6875 -112.375 152.6875 C-112.375 154.0075 -112.375 155.3275 -112.375 156.6875 C-113.365 156.6875 -114.355 156.6875 -115.375 156.6875 C-124.00397159 138.77467951 -119.05379239 117.73495722 -115.79589844 99.0378418 C-114.06622776 89.10127041 -112.61380766 79.18868267 -111.48675537 69.16564941 C-106.38914103 23.8824334 -106.38914103 23.8824334 -92.375 8.6875 C-91.86582031 8.08808594 -91.35664062 7.48867188 -90.83203125 6.87109375 C-68.7979463 -17.44800742 -25.78408945 -19.22207183 0 0 Z " fill="#231A19" transform="translate(193.375,49.3125)"/>
<path d="M0 0 C0 9.24 0 18.48 0 28 C1.485 22.06 1.485 22.06 3 16 C5.53073475 18.53073475 5.36225235 19.70928058 5.6328125 23.2265625 C5.71660156 24.2578125 5.80039063 25.2890625 5.88671875 26.3515625 C5.96535156 27.43179688 6.04398437 28.51203125 6.125 29.625 C6.21136719 30.71296875 6.29773438 31.8009375 6.38671875 32.921875 C6.59925957 35.61405877 6.80332432 38.30661828 7 41 C7.03738281 40.08476563 7.07476562 39.16953125 7.11328125 38.2265625 C7.17902344 37.03804687 7.24476563 35.84953125 7.3125 34.625 C7.37050781 33.44164062 7.42851562 32.25828125 7.48828125 31.0390625 C7.65714844 30.03617188 7.82601562 29.03328125 8 28 C8.99 27.34 9.98 26.68 11 26 C12.5768368 27.5768368 12.27420342 29.27109807 12.4296875 31.4609375 C12.50123047 32.39897217 12.57277344 33.33700684 12.64648438 34.3034668 C12.75959961 35.82387573 12.75959961 35.82387573 12.875 37.375 C13.50596443 45.18929887 14.28965519 52.94037511 15.5 60.6875 C15.61843262 61.4697998 15.73686523 62.25209961 15.85888672 63.05810547 C16.44976149 66.67631148 17.07072198 69.84829151 19 73 C19.495 71.02 19.495 71.02 20 69 C20.66 69 21.32 69 22 69 C23.54160999 72.08321999 23.39370545 75.35747207 23.5625 78.75 C23.6049585 79.58241211 23.64741699 80.41482422 23.69116211 81.27246094 C24.37451182 97.16137303 24.07957196 113.1002991 24 129 C21.11691265 126.31768475 19.75778935 123.51557871 18 120 C17.34 119.67 16.68 119.34 16 119 C16 120.65 16 122.3 16 124 C10.18037138 115.27055707 10.35816745 104.21496686 9.875 94.0625 C9.76637968 91.96612789 9.65433718 89.87001055 9.5383606 87.77403259 C9.4354955 85.89145122 9.34221631 84.00835319 9.24951172 82.12524414 C9.04791552 79.60016293 8.72488792 77.41442285 8 75 C7.5875 76.02738281 7.175 77.05476563 6.75 78.11328125 C1.00397226 92.0614091 -5.72323523 101.86012917 -18 111 C-18.99 110.505 -18.99 110.505 -20 110 C-19.55269531 109.39414063 -19.10539062 108.78828125 -18.64453125 108.1640625 C-14.45096521 102.35208398 -11.00350467 96.50528662 -8 90 C-8.47566406 90.59425781 -8.95132813 91.18851562 -9.44140625 91.80078125 C-16.52338435 100.18699104 -24.9079736 106.18627815 -33.93945312 112.31640625 C-38.49152998 115.4551176 -40.72906561 118.07788174 -43 123 C-43.556875 124.155 -44.11375 125.31 -44.6875 126.5 C-46.01581298 130.04216794 -46.61699975 133.24659755 -47 137 C-48.98 137 -50.96 137 -53 137 C-53 138.32 -53 139.64 -53 141 C-53.99 141 -54.98 141 -56 141 C-64.62897159 123.08717951 -59.67879239 102.04745722 -56.42089844 83.3503418 C-54.56967759 72.71549185 -53.08032269 62.1014376 -51.875 51.375 C-50.10225606 35.85917448 -48.12713395 20.50305642 -42 6 C-40.68 6 -39.36 6 -38 6 C-38 6.66 -38 7.32 -38 8 C-36.67162109 7.51080078 -36.67162109 7.51080078 -35.31640625 7.01171875 C-28.24914783 4.51869002 -21.32737468 2.4785952 -13.9375 1.1875 C-13.23633057 1.0639917 -12.53516113 0.9404834 -11.81274414 0.81323242 C-7.75678431 0.1501314 -4.16002327 0 0 0 Z " fill="#010101" transform="translate(134,65)"/>
<path d="M0 0 C0.33 0 0.66 0 1 0 C2.01265101 5.18983643 2.27996738 10.29515792 2.5 15.5625 C2.58498629 17.35160794 2.67092438 19.14067092 2.7578125 20.9296875 C2.90087142 23.91396306 3.04157128 26.89830114 3.1796875 29.8828125 C3.56708498 36.43757794 4.6112099 41.87223409 7 48 C7.495 47.01 7.495 47.01 8 46 C11 47 11 47 12.38671875 49.109375 C13.03060547 50.41648437 13.03060547 50.41648437 13.6875 51.75 C14.12449219 52.61109375 14.56148438 53.4721875 15.01171875 54.359375 C16.04127438 57.11028252 16.19360389 59.09070905 16 62 C15.01 62.495 15.01 62.495 14 63 C14.495 66.465 14.495 66.465 15 70 C16.32 69.67 17.64 69.34 19 69 C18.505 67.8553125 18.505 67.8553125 18 66.6875 C17 64 17 64 17 61 C20.15497657 61.3380332 20.93381319 61.91933482 23 64.4375 C23.99 65.7059375 23.99 65.7059375 25 67 C26.03833984 67.42345703 26.03833984 67.42345703 27.09765625 67.85546875 C27.72542969 68.23316406 28.35320312 68.61085938 29 69 C29.43359375 71.2421875 29.43359375 71.2421875 29.4375 73.875 C29.53514952 76.56314525 29.53514952 76.56314525 30 79 C31.62626404 80.38232443 33.2925002 81.71937515 35 83 C36.04352848 86.60424375 36 90.26476 36 94 C34.8274869 93.04882866 33.66212985 92.08882991 32.5 91.125 C31.8503125 90.59132813 31.200625 90.05765625 30.53125 89.5078125 C30.0259375 89.01023437 29.520625 88.51265625 29 88 C29 87.34 29 86.68 29 86 C29.99 85.01 30.98 84.02 32 83 C28.7 82.34 25.4 81.68 22 81 C21.67 80.01 21.34 79.02 21 78 C20.37191124 94.67107923 19.82332449 111.31397958 20 128 C20.66 128.33 21.32 128.66 22 129 C22.4021875 130.1446875 22.4021875 130.1446875 22.8125 131.3125 C24.26285531 134.59488307 26.11026292 135.94676576 29 138 C21.41541413 136.56507835 21.41541413 136.56507835 19.30859375 133.69921875 C18.38240234 132.20841797 18.38240234 132.20841797 17.4375 130.6875 C14.46364089 126.0980084 11.36832936 121.76975574 7.875 117.5625 C6.69550781 116.14130859 6.69550781 116.14130859 5.4921875 114.69140625 C3.57213784 112.617873 1.9414069 111.16933683 -0.28125 109.515625 C-3 107 -3 107 -3.5859375 104.10546875 C-3.48152344 102.66107422 -3.48152344 102.66107422 -3.375 101.1875 C-3.32085937 100.21167969 -3.26671875 99.23585938 -3.2109375 98.23046875 C-3.14132813 97.49441406 -3.07171875 96.75835937 -3 96 C-4.32 95.34 -5.64 94.68 -7 94 C-6.9371582 93.11646851 -6.9371582 93.11646851 -6.87304688 92.21508789 C-5.8482892 80.7378134 -5.8482892 80.7378134 -8.5 69.8125 C-10.51739233 67.54293363 -12.55493101 65.79333457 -15 64 C-15.55429688 63.44699219 -16.10859375 62.89398438 -16.6796875 62.32421875 C-22.74180921 56.69510573 -31.31927019 55.36481708 -39.1340332 53.47729492 C-40.77625255 53.05723227 -42.39189449 52.53603517 -44 52 C-41.23735711 51.40267181 -38.83967231 51 -36 51 C-38.75078884 50.08307039 -40.35948913 49.89113917 -43.1875 49.9375 C-44.445625 49.958125 -45.70375 49.97875 -47 50 C-51.24917473 60.11068454 -55.39497588 70.8575226 -55 82 C-54.67 79.36 -54.34 76.72 -54 74 C-53.67 74 -53.34 74 -53 74 C-52.84737481 82.30959383 -52.81203287 90.76268076 -54 99 C-54.99 99.99 -54.99 99.99 -56 101 C-56.69748583 102.31747324 -57.36959957 103.64914193 -58 105 C-61.37716163 101.62283837 -60.57535177 96.97528536 -60.75 92.375 C-60.79310303 91.3449585 -60.83620605 90.31491699 -60.88061523 89.25366211 C-61.15447552 80.64078966 -60.48979495 72.48321257 -59 64 C-57.68 64 -56.36 64 -55 64 C-55.103125 63.071875 -55.20625 62.14375 -55.3125 61.1875 C-55.32763233 53.7575236 -50.86060809 46.35010396 -46 41 C-44.00697815 39.49578161 -41.95990967 38.06153083 -39.875 36.6875 C-30.91659243 30.65086103 -22.8086248 24.47696333 -16 16 C-15.505 16.99 -15.505 16.99 -15 18 C-18.28793409 24.72903281 -22.51230407 31.01640542 -27 37 C-12.23433889 28.16069267 -6.45966532 15.3317365 0 0 Z " fill="#D0767C" transform="translate(142,138)"/>
<path d="M0 0 C6.875 0.875 6.875 0.875 8 2 C8.18517885 3.72539663 8.32299978 5.45597627 8.4375 7.1875 C8.78710885 13.36861958 8.78710885 13.36861958 11 19 C13.23704585 19.75461227 15.41056007 20.14029233 17.7421875 20.50390625 C20.87538401 21.19234216 22.69585168 22.83549703 25 25 C28.73880993 26.86940497 33.2972901 26.35669896 37.421875 26.5234375 C41 27 41 27 43.81784058 28.51147461 C47.36827424 30.17226842 49.59822155 30.34801155 53.49267578 30.29296875 C54.76063995 30.28305908 56.02860413 30.27314941 57.33499146 30.26293945 C58.33967657 30.24440414 58.33967657 30.24440414 59.36465836 30.22549438 C61.47503978 30.18695716 63.5848511 30.1675981 65.69552612 30.15307617 C70.17227478 30.11892092 74.64854957 30.06116352 79.125 30 C84.32145743 29.92912027 89.51764626 29.86800261 94.71447372 29.83218384 C96.79098449 29.81277414 98.86666405 29.77526498 100.94290161 29.73706055 C102.20456146 29.72715088 103.46622131 29.71724121 104.76611328 29.70703125 C106.43107346 29.68346558 106.43107346 29.68346558 108.12966919 29.65942383 C111.37718597 30.04475462 112.74881588 30.64650267 115 33 C115.80025416 39.74499931 114.61785805 42.01904521 112 49 C72.4 49 32.8 49 -8 49 C-10.25 37.75 -10.25 37.75 -11 33 C-9.35 33 -7.7 33 -6 33 C-5.9175 32.2575 -5.835 31.515 -5.75 30.75 C-4.85190201 27.45697405 -3.61583926 26.14023212 -1 24 C-0.34 24 0.32 24 1 24 C1 23.34 1 22.68 1 22 C2.65 22 4.3 22 6 22 C4.26905792 16.45311742 2.28419055 11.23920512 -0.328125 6.04296875 C-1.1241994 3.62234719 -0.83119315 2.37103175 0 0 Z " fill="#F4E2D5" transform="translate(240,241)"/>
<path d="M0 0 C0.66 0.33 1.32 0.66 2 1 C2 1.99 2 2.98 2 4 C5.3 4.66 8.6 5.32 12 6 C11.67 6.99 11.34 7.98 11 9 C10.34 9 9.68 9 9 9 C9 9.66 9 10.32 9 11 C9.8971875 11.433125 9.8971875 11.433125 10.8125 11.875 C13 13 13 13 16 15 C16 14.01 16 13.02 16 12 C17.0828125 13.5778125 17.0828125 13.5778125 18.1875 15.1875 C20.53313571 18.46746972 23.11047167 21.17614277 26 24 C28.21833735 26.55582096 30.42995193 29.11611515 32.62109375 31.6953125 C35.23593487 34.22857401 37.70250429 35.49992793 41 37 C41.99 37.66 42.98 38.32 44 39 C47.13768811 39.92403301 50.3544956 40.49322671 53.5625 41.125 C54.41908203 41.30675781 55.27566406 41.48851562 56.15820312 41.67578125 C61.46871164 42.73868213 66.37525356 43.14640652 71.78881836 42.87060547 C74.35958421 43.02104225 75.85745597 43.5831324 78 45 C78.75 47.625 78.75 47.625 79 50 C78.21625 50.515625 77.4325 51.03125 76.625 51.5625 C73.44405752 54.5162323 72.88506307 56.81606548 72 61 C71.67 60.34 71.34 59.68 71 59 C69.68 59 68.36 59 67 59 C67.495 60.155 67.99 61.31 68.5 62.5 C70.15562957 66.85282892 70.24775605 70.37522033 70 75 C68.02 75 66.04 75 64 75 C64.061875 74.13375 64.12375 73.2675 64.1875 72.375 C63.97480022 68.54640401 62.81764424 66.33234777 61 63 C61 62.34 61 61.68 61 61 C60.2575 60.9175 59.515 60.835 58.75 60.75 C55.4602774 59.85280293 54.29714895 58.45029221 52 56 C51.01 55.67 50.02 55.34 49 55 C48.67 55.99 48.34 56.98 48 58 C43.98260926 61.17324076 40.75127089 61.37502664 35.72265625 61.36328125 C35.03368759 61.36377975 34.34471893 61.36427826 33.63487244 61.36479187 C32.18339136 61.36246036 30.73190555 61.35278643 29.28051758 61.33618164 C27.07270679 61.31260898 24.86610774 61.31562494 22.65820312 61.32226562 C8.08845456 61.26486668 8.08845456 61.26486668 3.125 57.625 C2 56 2 56 2 52 C1.01 51.67 0.02 51.34 -1 51 C-1.18211519 33.98234737 -0.61735256 17.00346575 0 0 Z " fill="#CF767C" transform="translate(162,215)"/>
<path d="M0 0 C0.66 0 1.32 0 2 0 C4.47008714 6.68646845 6.41962177 12.8950359 6.82421875 20.0390625 C6.88652825 22.07769819 6.88652825 22.07769819 8 24 C8.99 24 9.98 24 11 24 C10.9685791 24.93682617 10.9685791 24.93682617 10.93652344 25.89257812 C10.85264156 28.7615506 10.80111489 31.63026408 10.75 34.5 C10.71648437 35.48226562 10.68296875 36.46453125 10.6484375 37.4765625 C10.56027308 44.08889436 11.5815783 48.3725982 15 54 C17.69804248 59.79230098 18.51358302 64.31616077 16.921875 70.5859375 C15.34974612 74.70278347 12.93391182 77.75512057 10 81 C9.46117187 81.61875 8.92234375 82.2375 8.3671875 82.875 C2.26028976 89.46476873 -3.8718999 92.89198605 -12.8046875 94.13671875 C-13.96726074 94.30260498 -15.12983398 94.46849121 -16.32763672 94.6394043 C-17.2095166 94.75840088 -18.09139648 94.87739746 -19 95 C-19.17985906 87.51542783 -19.30104932 80.03142706 -19.38452148 72.54516602 C-19.41937624 70.00719382 -19.46687857 67.46935842 -19.52807617 64.93188477 C-19.902069 49.00733293 -19.36279456 35.38418403 -12 21 C-11.34 20.34 -10.68 19.68 -10 19 C-9.67 22.3 -9.34 25.6 -9 29 C-4.49550612 19.99101225 -2.55214086 9.71627233 0 0 Z " fill="#F4DFD3" transform="translate(186,64)"/>
<path d="M0 0 C1.35847516 1.11262582 2.65698868 2.29822368 3.93359375 3.50390625 C3.5670238 5.90418619 3.37307673 7.15277885 1.4375 8.69921875 C-7.52083691 12.98912657 -16.47951038 13.8659429 -26.31640625 13.81640625 C-27.42089111 13.81511719 -28.52537598 13.81382813 -29.66333008 13.8125 C-49.15487986 13.60606272 -68.63306209 11.91442116 -88.06640625 10.50390625 C-87.14305454 5.01094586 -85.35136975 3.55831809 -80.91015625 0.33984375 C-57.1106476 -15.02522365 -23.76789483 -17.20813558 0 0 Z " fill="#231919" transform="translate(192.06640625,48.49609375)"/>
<path d="M0 0 C0.33 0 0.66 0 1 0 C2.01265101 5.18983643 2.27996738 10.29515792 2.5 15.5625 C2.58498629 17.35160794 2.67092438 19.14067092 2.7578125 20.9296875 C2.90087142 23.91396306 3.04157128 26.89830114 3.1796875 29.8828125 C3.56708498 36.43757794 4.6112099 41.87223409 7 48 C7.495 47.01 7.495 47.01 8 46 C11 47 11 47 12.38671875 49.109375 C12.81597656 49.98078125 13.24523437 50.8521875 13.6875 51.75 C14.12449219 52.61109375 14.56148437 53.4721875 15.01171875 54.359375 C16.04127438 57.11028252 16.19360389 59.09070905 16 62 C15.01 62.495 15.01 62.495 14 63 C14.33 64.32 14.66 65.64 15 67 C7.25 67.125 7.25 67.125 5 66 C5.185625 65.2575 5.37125 64.515 5.5625 63.75 C5.99203108 61.05009037 5.85122974 59.55368923 5 57 C3.49953125 57.5878125 3.49953125 57.5878125 1.96875 58.1875 C-2.46075735 59.44163762 -5.53241823 58.00753109 -9.5 56 C-10.91327333 55.33815597 -12.32735595 54.67803768 -13.7421875 54.01953125 C-14.80711426 53.51220459 -14.80711426 53.51220459 -15.89355469 52.99462891 C-26.11073342 48.17024479 -35.68260974 45.01141546 -47 44 C-45.70095739 40.10287218 -43.35011107 38.95504529 -40.0625 36.8125 C-31.03874196 30.73332362 -22.85862191 24.53921139 -16 16 C-15.67 16.66 -15.34 17.32 -15 18 C-18.28793409 24.72903281 -22.51230407 31.01640542 -27 37 C-12.23433889 28.16069267 -6.45966532 15.3317365 0 0 Z " fill="#B3A091" transform="translate(142,138)"/>
<path d="M0 0 C3.1664333 2.96897198 5.53155452 6.08089075 7.9375 9.6875 C11.65912354 15.17988318 15.58360397 20.48895288 19.625 25.75 C20.18711182 26.4819458 20.74922363 27.2138916 21.32836914 27.96801758 C24.14815352 31.62754314 26.99845255 35.25987955 29.875 38.875 C40 51.81672932 40 51.81672932 40 55 C24.49 55 8.98 55 -7 55 C-6.67 54.01 -6.34 53.02 -6 52 C-4.95327603 44.36006164 -4.84531532 36.69822626 -4.875 29 C-4.87113281 27.99710937 -4.86726563 26.99421875 -4.86328125 25.9609375 C-4.87194331 19.25650285 -5.28003665 12.66499098 -6 6 C-5.34 6.33 -4.68 6.66 -4 7 C-2.68 4.69 -1.36 2.38 0 0 Z " fill="#BB6A6E" transform="translate(88,235)"/>
<path d="M0 0 C0.66065712 -0.00282738 1.32131424 -0.00565475 2.00199127 -0.00856781 C5.48847339 -0.023461 8.97491506 -0.03275651 12.46142578 -0.03710938 C16.05490071 -0.04262413 19.64800249 -0.0667424 23.24135971 -0.09508133 C26.01575828 -0.11370165 28.79006601 -0.11891265 31.56452179 -0.12044525 C33.53213385 -0.12493077 35.49969726 -0.14356197 37.46722412 -0.16241455 C39.25993744 -0.1579129 39.25993744 -0.1579129 41.08886719 -0.15332031 C42.13951355 -0.15696594 43.19015991 -0.16061157 44.27264404 -0.16436768 C47.42839285 0.25842584 48.80683826 0.92599256 51.015625 3.203125 C51.81587916 9.94812431 50.63348305 12.22217021 48.015625 19.203125 C32.835625 19.203125 17.655625 19.203125 2.015625 19.203125 C6.015625 10.203125 6.015625 10.203125 7.015625 8.203125 C-0.244375 8.203125 -7.504375 8.203125 -14.984375 8.203125 C-15.314375 11.173125 -15.644375 14.143125 -15.984375 17.203125 C-11.694375 17.203125 -7.404375 17.203125 -2.984375 17.203125 C-2.984375 17.533125 -2.984375 17.863125 -2.984375 18.203125 C-7.934375 18.203125 -12.884375 18.203125 -17.984375 18.203125 C-18.974375 15.893125 -19.964375 13.583125 -20.984375 11.203125 C-19.334375 11.533125 -17.684375 11.863125 -15.984375 12.203125 C-16.33371094 11.66042969 -16.68304688 11.11773437 -17.04296875 10.55859375 C-17.49800781 9.84316406 -17.95304687 9.12773437 -18.421875 8.390625 C-18.87433594 7.68292969 -19.32679688 6.97523438 -19.79296875 6.24609375 C-20.984375 4.203125 -20.984375 4.203125 -21.984375 1.203125 C-14.65560608 0.06065212 -7.40742291 0.02458538 0 0 Z " fill="#BAA8A3" transform="translate(303.984375,270.796875)"/>
<path d="M0 0 C6.48669213 4.5820426 9.05752072 11.09498008 10.53515625 18.78515625 C10.76743923 20.84953036 10.89625953 22.92519067 11 25 C10.01 25 9.02 25 8 25 C8 27.97 8 30.94 8 34 C6.515 34.495 6.515 34.495 5 35 C4.67 34.34 4.34 33.68 4 33 C3.01 33.99 3.01 33.99 2 35 C-0.625 35.625 -0.625 35.625 -3 36 C-3.05607422 34.7315625 -3.05607422 34.7315625 -3.11328125 33.4375 C-3.50785044 26.62924737 -4.37815871 21.26962048 -7 15 C-7 13.68 -7 12.36 -7 11 C-7.66 11 -8.32 11 -9 11 C-9 12.65 -9 14.3 -9 16 C-9.495 15.01 -9.495 15.01 -10 14 C-12.95972191 13.52621182 -12.95972191 13.52621182 -16.578125 13.3671875 C-17.25235001 13.32535339 -17.92657501 13.28351929 -18.62123108 13.24041748 C-20.83033321 13.10728404 -23.03987307 12.98978942 -25.25 12.875 C-26.00163422 12.83397156 -26.75326843 12.79294312 -27.52767944 12.75067139 C-32.68389758 12.47046085 -37.84114729 12.22599754 -43 12 C-44.08812988 11.95037109 -45.17625977 11.90074219 -46.29736328 11.84960938 C-62.29359583 11.20572214 -78.03597947 12.98921211 -92.90625 19.265625 C-95 20 -95 20 -99 20 C-99 19.34 -99 18.68 -99 18 C-99.99 18 -100.98 18 -102 18 C-100.11408904 11.96508491 -96.24398161 6.49598774 -91 3 C-91 3.99 -91 4.98 -91 6 C-90.42004776 5.83166153 -89.84009552 5.66332306 -89.24256897 5.48988342 C-85.62278495 4.69915092 -82.03028276 5.23964708 -78.37109375 5.55859375 C-76.60827179 5.69950851 -74.84541211 5.83995198 -73.08251953 5.97998047 C-71.69930511 6.09282379 -71.69930511 6.09282379 -70.28814697 6.20794678 C-56.7466537 7.29839868 -43.21597105 8.31277842 -29.625 8.375 C-28.09057251 8.39518188 -28.09057251 8.39518188 -26.52514648 8.41577148 C-17.28242435 8.36097121 -8.66829966 6.13021932 0 3 C0 2.01 0 1.02 0 0 Z " fill="#4C4240" transform="translate(195,53)"/>
<path d="M0 0 C13.29913038 0.96114659 24.89339418 4.90632781 36.78515625 10.86328125 C43.2462785 14.4878645 43.2462785 14.4878645 50.3125 14.375 C51.199375 13.92125 52.08625 13.4675 53 13 C53.99 15.97 53.99 15.97 55 19 C53.515 19.495 53.515 19.495 52 20 C51.34 20.99 50.68 21.98 50 23 C46.30139475 21.84456795 42.72174968 20.50101948 39.14453125 19.01953125 C37.84032227 18.48102539 37.84032227 18.48102539 36.50976562 17.93164062 C34.69743333 17.17967364 32.88755686 16.42176276 31.08007812 15.65820312 C30.21447266 15.30306641 29.34886719 14.94792969 28.45703125 14.58203125 C27.67303955 14.25436768 26.88904785 13.9267041 26.08129883 13.58911133 C23.83488786 12.74245529 23.83488786 12.74245529 21 14 C18.64503731 13.46220804 16.31238436 12.82353277 14 12.125 C12.14375 11.57199219 12.14375 11.57199219 10.25 11.0078125 C8.15998551 10.35970705 6.07590489 9.6919683 4 9 C6.76264289 8.40267181 9.16032769 8 12 8 C9.24921116 7.08307039 7.64051087 6.89113917 4.8125 6.9375 C3.554375 6.958125 2.29625 6.97875 1 7 C-3.24917473 17.11068454 -7.39497588 27.8575226 -7 39 C-6.67 36.36 -6.34 33.72 -6 31 C-5.67 31 -5.34 31 -5 31 C-4.84737481 39.30959383 -4.81203287 47.76268076 -6 56 C-6.66 56.66 -7.32 57.32 -8 58 C-8.69748583 59.31747324 -9.36959957 60.64914193 -10 62 C-13.37716163 58.62283837 -12.57535177 53.97528536 -12.75 49.375 C-12.79310303 48.3449585 -12.83620605 47.31491699 -12.88061523 46.25366211 C-13.15447552 37.64078966 -12.48979495 29.48321257 -11 21 C-9.68 21 -8.36 21 -7 21 C-7.103125 20.071875 -7.20625 19.14375 -7.3125 18.1875 C-7.35274464 11.62762418 -3.54681128 5.32021692 0 0 Z " fill="#B07672" transform="translate(94,181)"/>
<path d="M0 0 C4.17059402 1.12718757 7.68004154 3.27025637 11 6 C13.9088038 12.82936544 13.2207586 20.14143098 13.125 27.4375 C13.11597656 28.74138672 13.10695313 30.04527344 13.09765625 31.38867188 C13.07418397 34.59263832 13.04134727 37.79622264 13 41 C8.32051602 41.27771418 5.32416664 40.54837397 1.125 38.5 C0.15820312 38.0359375 -0.80859375 37.571875 -1.8046875 37.09375 C-2.52914062 36.7328125 -3.25359375 36.371875 -4 36 C-3.93125577 31.19398068 -3.84335728 26.38884258 -3.73754883 21.58349609 C-3.70425786 19.94817866 -3.67623894 18.31274518 -3.65356445 16.67724609 C-3.62009372 14.32859757 -3.56778564 11.98101663 -3.51171875 9.6328125 C-3.50532883 8.89942657 -3.4989389 8.16604065 -3.49235535 7.41043091 C-3.43237305 5.34814453 -3.43237305 5.34814453 -3 2 C-2.01 1.34 -1.02 0.68 0 0 Z " fill="#D1767C" transform="translate(90,249)"/>
<path d="M0 0 C1.46146512 0.04519995 2.92306466 0.08625498 4.38476562 0.12304688 C7.94682703 0.22168001 11.50380013 0.37663807 15.0625 0.5625 C15.5575 1.5525 15.5575 1.5525 16.0625 2.5625 C14.4125 6.5225 12.7625 10.4825 11.0625 14.5625 C-0.8175 14.5625 -12.6975 14.5625 -24.9375 14.5625 C-19.56169418 1.12298545 -13.89556741 -0.74751163 0 0 Z " fill="#C0AB9E" transform="translate(334.9375,275.4375)"/>
<path d="M0 0 C0.66 0.33 1.32 0.66 2 1 C4.8749034 10.94524001 5.41198007 21.16515056 5.53344727 31.4597168 C5.6519225 36.77287541 6.10519176 40.38880104 9 45 C9.33 45.58313965 9.66 46.1662793 10 46.76708984 C12.84655948 51.59446383 16.07526061 56.16480672 21 59 C28.52329396 60.70319016 36.40132421 59.8788504 44 59 C43.505 59.99 43.505 59.99 43 61 C38.55258682 61.04966189 34.1053232 61.08584293 29.65771484 61.10986328 C28.14661851 61.11988339 26.63554138 61.13350321 25.12451172 61.15087891 C22.94493858 61.17530392 20.76562316 61.18652307 18.5859375 61.1953125 C16.62213135 61.21102295 16.62213135 61.21102295 14.61865234 61.22705078 C10.28796575 60.95532372 6.66044142 60.21765704 3.125 57.625 C2 56 2 56 2 52 C1.01 51.67 0.02 51.34 -1 51 C-1.18211519 33.98234737 -0.61735256 17.00346575 0 0 Z " fill="#834248" transform="translate(162,215)"/>
<path d="M0 0 C0.72348633 0.20399414 1.44697266 0.40798828 2.19238281 0.61816406 C6.50139278 1.84157175 10.79699349 3.10364544 15.07446289 4.43334961 C16.92335214 4.97744393 18.80202642 5.41702947 20.6796875 5.8515625 C24.56232769 7.19449923 26.38420891 8.83985269 29.1875 11.8125 C30.00605469 12.66457031 30.82460937 13.51664063 31.66796875 14.39453125 C33.87708752 16.86267567 35.96159235 19.38990102 38 22 C37.67 22.66 37.34 23.32 37 24 C35.68 23.67 34.36 23.34 33 23 C33 23.66 33 24.32 33 25 C35.31 25 37.62 25 40 25 C40.495 25.99 40.495 25.99 41 27 C33.25 27.125 33.25 27.125 31 26 C31.2784375 24.88625 31.2784375 24.88625 31.5625 23.75 C31.99203108 21.05009037 31.85122974 19.55368923 31 17 C29.9996875 17.391875 28.999375 17.78375 27.96875 18.1875 C23.53924265 19.44163762 20.46758177 18.00753109 16.5 16 C15.08672667 15.33815597 13.67264405 14.67803768 12.2578125 14.01953125 C11.19288574 13.51220459 11.19288574 13.51220459 10.10644531 12.99462891 C-0.11073342 8.17024479 -9.68260974 5.01141546 -21 4 C-19.95652423 0.8695727 -18.98486269 -0.64991312 -16.1640625 -2.39453125 C-10.87971548 -3.87300379 -5.12692385 -1.46657841 0 0 Z " fill="#F9F8F6" transform="translate(116,178)"/>
<path d="M0 0 C0 0.66 0 1.32 0 2 C-0.66 2 -1.32 2 -2 2 C-2 2.66 -2 3.32 -2 4 C-3.65 4.66 -5.3 5.32 -7 6 C-6.36771484 6.61875 -6.36771484 6.61875 -5.72265625 7.25 C-1.40797978 11.79817661 -0.2196833 14.73902584 0 21 C-10.05610192 21.14141393 -19.97562315 20.72904559 -30 20 C-29.66153641 17.1255121 -29.37282721 15.42000882 -27.42578125 13.2265625 C-20.16030095 7.72037595 -9.34826394 0 0 0 Z " fill="#060404" transform="translate(134,39)"/>
<path d="M0 0 C8.2298742 6.58389936 14.98188606 15.71648922 20 25 C19 28 19 28 17.25 28.94921875 C16.13625 29.31466797 16.13625 29.31466797 15 29.6875 C14.278125 29.93886719 13.55625 30.19023437 12.8125 30.44921875 C10 31 10 31 1 31 C0.67 20.77 0.34 10.54 0 0 Z " fill="#D1767B" transform="translate(103,259)"/>
<path d="M0 0 C3.55487542 0.26332411 4.79615651 0.78893777 7.31640625 3.3984375 C8.05761719 4.38070312 8.79882812 5.36296875 9.5625 6.375 C12.16431143 9.79297759 14.38479236 12.65959433 18 15 C19.55267578 16.01320312 19.55267578 16.01320312 21.13671875 17.046875 C25.47644996 19.47388846 29.9609786 20.35252371 34.8125 21.25 C36.07030273 21.50910156 36.07030273 21.50910156 37.35351562 21.7734375 C42.58443755 22.7866522 47.45556778 23.12909366 52.7800293 22.86621094 C55.35333623 23.02129421 56.85509907 23.58138164 59 25 C59.75 27.625 59.75 27.625 60 30 C59.21625 30.515625 58.4325 31.03125 57.625 31.5625 C54.44405752 34.5162323 53.88506307 36.81606548 53 41 C52.67 40.34 52.34 39.68 52 39 C50.68 39 49.36 39 48 39 C48.495 40.155 48.99 41.31 49.5 42.5 C51.15562957 46.85282892 51.24775605 50.37522033 51 55 C50.34 55 49.68 55 49 55 C48.80083984 53.89591797 48.80083984 53.89591797 48.59765625 52.76953125 C48.42105469 51.79371094 48.24445313 50.81789063 48.0625 49.8125 C47.88847656 48.84957031 47.71445313 47.88664062 47.53515625 46.89453125 C47.0476265 44.25760028 46.53328895 41.6280095 46 39 C46.7425 38.79375 47.485 38.5875 48.25 38.375 C51.83368332 36.58315834 53.03492182 34.43888682 55 31 C55.495 29.515 55.495 29.515 56 28 C55.12859375 27.96261719 54.2571875 27.92523438 53.359375 27.88671875 C45.22041396 27.43749038 37.83146302 26.20508538 30 24 C28.52201009 23.6409542 27.04297156 23.28617181 25.5625 22.9375 C22 22 22 22 19.25 20.75 C16.99441565 19.71803474 16.99441565 19.71803474 14.875 20.9375 C14.25625 21.288125 13.6375 21.63875 13 22 C12.01 21.67 11.02 21.34 10 21 C10.99 19.35 11.98 17.7 13 16 C12.34 15.38125 11.68 14.7625 11 14.125 C9 12 9 12 9 10 C8.443125 9.773125 7.88625 9.54625 7.3125 9.3125 C4.31958801 7.61382022 2.26472763 5.57927313 0 3 C0 2.01 0 1.02 0 0 Z " fill="#844853" transform="translate(181,235)"/>
<path d="M0 0 C0.33 0.66 0.66 1.32 1 2 C-2.28793409 8.72903281 -6.51230407 15.01640542 -11 21 C-10.113125 20.319375 -9.22625 19.63875 -8.3125 18.9375 C-5 17 -5 17 -2.6171875 17.10546875 C0.72851087 18.24899849 2.61116058 19.96625906 5.1875 22.375 C6.04730469 23.16648438 6.90710938 23.95796875 7.79296875 24.7734375 C10 27 10 27 12 30 C4.32442541 29.42209354 -2.68669102 27.58682691 -10.0625 25.4375 C-11.21427734 25.10814453 -12.36605469 24.77878906 -13.55273438 24.43945312 C-16.37040866 23.6327331 -19.18600893 22.81945719 -22 22 C-20.1852999 17.96142337 -18.02796041 16.35107628 -14.375 13.8125 C-8.78815468 9.82129412 -4.29682912 5.34576094 0 0 Z " fill="#BAB7AE" transform="translate(126,154)"/>
<path d="M0 0 C0.66 0 1.32 0 2 0 C4.8917284 7.51333004 6.64323227 13.92386148 6 22 C5.34 21.67 4.68 21.34 4 21 C1.81975745 22.75886894 1.81975745 22.75886894 1.8046875 24.92358398 C1.82789063 25.69001221 1.85109375 26.45644043 1.875 27.24609375 C1.89046875 28.08333984 1.9059375 28.92058594 1.921875 29.78320312 C1.97384346 31.54883151 2.02592628 33.31445653 2.078125 35.08007812 C2.09359375 35.91861328 2.1090625 36.75714844 2.125 37.62109375 C2.14820313 38.3886499 2.17140625 39.15620605 2.1953125 39.94702148 C2 42 2 42 0 45 C-0.66 45 -1.32 45 -2 45 C-3.58899931 40.73479134 -4.31068191 36.97558343 -4.5625 32.4375 C-4.808812 27.90946732 -4.808812 27.90946732 -5.65234375 23.47265625 C-6.11801591 20.16062838 -5.17282249 18.11986113 -4 15 C-3.24484118 12.38744876 -2.56330964 9.75587241 -1.875 7.125 C-1.69324219 6.43664062 -1.51148438 5.74828125 -1.32421875 5.0390625 C-0.88108774 3.3598292 -0.44029956 1.67997794 0 0 Z " fill="#C1B0A8" transform="translate(186,64)"/>
<path d="M0 0 C0.33 0.66 0.66 1.32 1 2 C1.99 2 2.98 2 4 2 C3.9685791 2.93682617 3.9685791 2.93682617 3.93652344 3.89257812 C3.85264156 6.7615506 3.80111489 9.63026408 3.75 12.5 C3.71648437 13.48226562 3.68296875 14.46453125 3.6484375 15.4765625 C3.56027308 22.08889436 4.5815783 26.3725982 8 32 C10.69804248 37.79230098 11.51358302 42.31616077 9.921875 48.5859375 C8.34974612 52.70278347 5.93391182 55.75512057 3 59 C2.46117187 59.61875 1.92234375 60.2375 1.3671875 60.875 C-6.5057799 69.3704811 -14.6403581 71.82365377 -26 73 C-26 72.01 -26 71.02 -26 70 C-25.02160156 69.78085938 -24.04320312 69.56171875 -23.03515625 69.3359375 C-11.87541207 66.69595206 -2.60045051 62.95339502 4 53 C6.71706768 48.14311712 7.49703337 43.81580935 6.65625 38.3125 C5.47683756 34.15647522 3.27670245 30.63810898 1 27 C-0.93999152 23.12001696 -0.44107538 18.33874735 -0.625 14.0625 C-0.70234375 12.53979492 -0.70234375 12.53979492 -0.78125 10.98632812 C-0.82507813 10.01244141 -0.86890625 9.03855469 -0.9140625 8.03515625 C-0.9548291 7.1419165 -0.9955957 6.24867676 -1.03759766 5.32836914 C-1 3 -1 3 0 0 Z " fill="#D1C8BA" transform="translate(193,86)"/>
<path d="M0 0 C0.99 0 1.98 0 3 0 C4.13764351 4.26616316 5 7.56486311 5 12 C4.01 12 3.02 12 2 12 C2 14.97 2 17.94 2 21 C1.01 21.33 0.02 21.66 -1 22 C-1.33 21.34 -1.66 20.68 -2 20 C-2.66 20.66 -3.32 21.32 -4 22 C-6.625 22.625 -6.625 22.625 -9 23 C-9.07347656 21.67935547 -9.07347656 21.67935547 -9.1484375 20.33203125 C-9.22320312 19.17058594 -9.29796875 18.00914063 -9.375 16.8125 C-9.44460937 15.66394531 -9.51421875 14.51539062 -9.5859375 13.33203125 C-9.97805804 10.1765707 -10.79697548 7.90975442 -12 5 C-12 3.68 -12 2.36 -12 1 C-8.04 1.33 -4.08 1.66 0 2 C0 1.34 0 0.68 0 0 Z " fill="#1A1C19" transform="translate(201,66)"/>
<path d="M0 0 C13.29913038 0.96114659 24.89339418 4.90632781 36.78515625 10.86328125 C43.2462785 14.4878645 43.2462785 14.4878645 50.3125 14.375 C51.199375 13.92125 52.08625 13.4675 53 13 C53.66 14.98 54.32 16.96 55 19 C53.68 19 52.36 19 51 19 C50.67 19.66 50.34 20.32 50 21 C46.60802966 20.41837062 43.73988111 19.57311833 40.62890625 18.109375 C39.81365479 17.73167969 38.99840332 17.35398438 38.15844727 16.96484375 C37.30178467 16.56394531 36.44512207 16.16304687 35.5625 15.75 C19.28042523 7.82742993 19.28042523 7.82742993 1.6875 4.9375 C0.470625 4.958125 -0.74625 4.97875 -2 5 C-1.34 3.35 -0.68 1.7 0 0 Z " fill="#877C7D" transform="translate(94,181)"/>
<path d="M0 0 C1.14339844 -0.02835937 2.28679687 -0.05671875 3.46484375 -0.0859375 C5.00205078 -0.12460937 5.00205078 -0.12460937 6.5703125 -0.1640625 C9.72522433 0.21835105 11.07284729 0.89229267 13.27734375 3.1640625 C14.00691255 9.31328526 12.69362318 13.52607717 10.27734375 19.1640625 C8.29734375 19.1640625 6.31734375 19.1640625 4.27734375 19.1640625 C5.37695747 14.76560763 6.84362287 10.46522513 8.27734375 6.1640625 C-2.94265625 5.8340625 -14.16265625 5.5040625 -25.72265625 5.1640625 C-25.72265625 4.5040625 -25.72265625 3.8440625 -25.72265625 3.1640625 C-17.24951651 0.4985991 -8.83563125 0.38939823 0 0 Z " fill="#C4B1A5" transform="translate(341.72265625,270.8359375)"/>
<path d="M0 0 C6.875 0.875 6.875 0.875 8 2 C8.18517885 3.72539663 8.32299978 5.45597627 8.4375 7.1875 C8.79244657 11.38679096 9.17306514 15.14313752 11 19 C11.99 19.33 12.98 19.66 14 20 C13.67 20.99 13.34 21.98 13 23 C10.6015625 24.0625 10.6015625 24.0625 7.625 25 C3.87460184 26.18746116 1.66509582 27.12235053 -1 30 C-1.66 30 -2.32 30 -3 30 C-2.67 30.99 -2.34 31.98 -2 33 C-2.66 33.99 -3.32 34.98 -4 36 C-3.69159401 38.15274948 -3.69159401 38.15274948 -3 40 C-4.5 38.9375 -4.5 38.9375 -6 37 C-6.50672815 33.642926 -6.71271369 31.2089736 -4.9453125 28.2109375 C-3.625 26.5625 -3.625 26.5625 -1 24 C-0.34 24 0.32 24 1 24 C1 23.34 1 22.68 1 22 C2.65 22 4.3 22 6 22 C4.26905792 16.45311742 2.28419055 11.23920512 -0.328125 6.04296875 C-1.1241994 3.62234719 -0.83119315 2.37103175 0 0 Z " fill="#C7AFA7" transform="translate(240,241)"/>
<path d="M0 0 C4.26003643 0.78988175 5.35826267 2.61527405 8 6 C9.03833984 6.42345703 9.03833984 6.42345703 10.09765625 6.85546875 C10.72542969 7.23316406 11.35320312 7.61085937 12 8 C12.43359375 10.2421875 12.43359375 10.2421875 12.4375 12.875 C12.53514952 15.56314525 12.53514952 15.56314525 13 18 C14.62626404 19.38232443 16.2925002 20.71937515 18 22 C19.04352848 25.60424375 19 29.26476 19 33 C17.8274869 32.04882866 16.66212985 31.08882991 15.5 30.125 C14.8503125 29.59132812 14.200625 29.05765625 13.53125 28.5078125 C13.0259375 28.01023438 12.520625 27.51265625 12 27 C12 26.34 12 25.68 12 25 C12.99 24.01 13.98 23.02 15 22 C11.7 21.34 8.4 20.68 5 20 C4.67 19.01 4.34 18.02 4 17 C3.67 20.3 3.34 23.6 3 27 C2.67 27 2.34 27 2 27 C1.93941406 26.25234375 1.87882813 25.5046875 1.81640625 24.734375 C1.73261719 23.74953125 1.64882812 22.7646875 1.5625 21.75 C1.48128906 20.77546875 1.40007812 19.8009375 1.31640625 18.796875 C1.04925416 16.43538247 0.64628032 14.28098935 0 12 C0.99 12.495 0.99 12.495 2 13 C2 10.0845524 1.59136731 7.65845519 1 4.8125 C0.814375 3.91144531 0.62875 3.01039063 0.4375 2.08203125 C0.293125 1.39496094 0.14875 0.70789063 0 0 Z " fill="#AF656B" transform="translate(159,199)"/>
<path d="M0 0 C0.66 0.33 1.32 0.66 2 1 C3.96432205 7.07138417 4.26993683 12.62575482 4.1953125 18.96875 C4.1924826 19.88966431 4.18965271 20.81057861 4.18673706 21.75939941 C4.17562775 24.67307052 4.15054078 27.58642331 4.125 30.5 C4.11495823 32.4869747 4.10583448 34.47395426 4.09765625 36.4609375 C4.07571879 41.30741252 4.04125361 46.15365247 4 51 C2.35 51 0.7 51 -1 51 C-1.18211519 33.98234737 -0.61735256 17.00346575 0 0 Z " fill="#591925" transform="translate(162,215)"/>
<path d="M0 0 C8.25 0 16.5 0 25 0 C24.01 0.495 24.01 0.495 23 1 C22.28752268 2.6476038 21.62599617 4.31763529 21 6 C20.34 7.32 19.68 8.64 19 10 C12.73 10 6.46 10 0 10 C0 6.7 0 3.4 0 0 Z " fill="#F5F5F2" transform="translate(288,278)"/>
<path d="M0 0 C4.97367352 2.00793316 8.05507021 6.055458 11.66015625 9.8828125 C13.84483203 12.33547287 13.84483203 12.33547287 17 12 C17.33 11.34 17.66 10.68 18 10 C17.34 10 16.68 10 16 10 C16.33 9.34 16.66 8.68 17 8 C17.66 8 18.32 8 19 8 C19.33 9.32 19.66 10.64 20 12 C20.33 11.34 20.66 10.68 21 10 C24 11 24 11 25.38671875 13.109375 C25.81597656 13.98078125 26.24523437 14.8521875 26.6875 15.75 C27.12449219 16.61109375 27.56148437 17.4721875 28.01171875 18.359375 C29.05294552 21.14146708 29.27665811 23.05736375 29 26 C27.875 27.8125 27.875 27.8125 26 29 C22.8125 29.1875 22.8125 29.1875 20 29 C20 28.34 20 27.68 20 27 C21.32 26.67 22.64 26.34 24 26 C17.38300551 18.72599897 10.69552468 11.56849586 3.65917969 4.69628906 C2.42251761 3.48119185 1.20866302 2.24295133 0 1 C0 0.67 0 0.34 0 0 Z " fill="#796764" transform="translate(129,174)"/>
<path d="M0 0 C4.30254484 3.89918126 7.48323258 8.34538084 10.84375 13.06640625 C12.88014932 15.83694228 15.02305374 18.44422442 17.25 21.0625 C34 41.2153021 34 41.2153021 34 46 C29.05 46 24.1 46 19 46 C21.98646769 44.00902154 24.59687262 43.05875074 28 42 C24.3421214 31.9982643 16.63554758 24.11011371 10 16 C10 25.9 10 35.8 10 46 C9.67 46 9.34 46 9 46 C8.98018066 45.18845459 8.96036133 44.37690918 8.93994141 43.54077148 C8.84428163 39.83937251 8.73476786 36.13850635 8.625 32.4375 C8.5940625 31.16068359 8.563125 29.88386719 8.53125 28.56835938 C8.65526252 18.20687218 8.65526252 18.20687218 4.375 9.1875 C3.92125 8.795625 3.4675 8.40375 3 8 C3 7.34 3 6.68 3 6 C2.505 5.34 2.01 4.68 1.5 4 C0 2 0 2 0 0 Z " fill="#A0484C" transform="translate(94,244)"/>
<path d="M0 0 C17.81446341 -1.20776023 37.22560406 9.4746001 53 17 C53.495 15.515 53.495 15.515 54 14 C54.66 14.33 55.32 14.66 56 15 C55.01 16.32 54.02 17.64 53 19 C49.30139475 17.84456795 45.72174968 16.50101948 42.14453125 15.01953125 C41.27505859 14.66052734 40.40558594 14.30152344 39.50976562 13.93164062 C37.69743333 13.17967364 35.88755686 12.42176276 34.08007812 11.65820312 C33.21447266 11.30306641 32.34886719 10.94792969 31.45703125 10.58203125 C30.67303955 10.25436768 29.88904785 9.9267041 29.08129883 9.58911133 C26.83488786 8.74245529 26.83488786 8.74245529 24 10 C21.64503731 9.46220804 19.31238436 8.82353277 17 8.125 C15.7625 7.75632813 14.525 7.38765625 13.25 7.0078125 C11.15998551 6.35970705 9.07590489 5.6919683 7 5 C9.76264289 4.40267181 12.16032769 4 15 4 C12.24921116 3.08307039 10.64051087 2.89113917 7.8125 2.9375 C6.554375 2.958125 5.29625 2.97875 4 3 C3.66226563 3.90363281 3.32453125 4.80726563 2.9765625 5.73828125 C2.53054687 6.91777344 2.08453125 8.09726563 1.625 9.3125 C1.18414062 10.48425781 0.74328125 11.65601563 0.2890625 12.86328125 C-1 16 -1 16 -3 19 C-2.60406637 14.56554334 -2.05449707 10.82105672 -0.375 6.6875 C1.39156059 3.12842769 1.39156059 3.12842769 0 0 Z " fill="#7B494C" transform="translate(91,185)"/>
<path d="M0 0 C15.18 0 30.36 0 46 0 C46 0.33 46 0.66 46 1 C45.07316406 1.06058594 44.14632812 1.12117188 43.19140625 1.18359375 C41.39509766 1.30927734 41.39509766 1.30927734 39.5625 1.4375 C38.36753906 1.51871094 37.17257812 1.59992188 35.94140625 1.68359375 C33.11429756 1.67656114 33.11429756 1.67656114 32 3 C30.00041636 3.04080783 27.99954746 3.04254356 26 3 C26 3.66 26 4.32 26 5 C18.39427807 6.72982123 10.64199882 6.35857757 3 5 C3 4.01 3 3.02 3 2 C2.01 1.67 1.02 1.34 0 1 C0 0.67 0 0.34 0 0 Z " fill="#DAC7C0" transform="translate(290,271)"/>
<path d="M0 0 C0.8161377 0.00016113 1.63227539 0.00032227 2.47314453 0.00048828 C11.58827997 0.16756099 26.75956374 1.32084346 33.64453125 7.8828125 C34.78385417 9.38020833 35.92317708 10.87760417 37.0625 12.375 C34.60833283 11.40202045 32.16345367 10.41843553 29.73828125 9.375 C28.95839844 9.045 28.17851562 8.715 27.375 8.375 C26.60800781 8.045 25.84101563 7.715 25.05078125 7.375 C16.03861698 4.35916463 7.38455618 4.11850992 -2.0625 4.25 C-3.30515625 4.25902344 -4.5478125 4.26804688 -5.828125 4.27734375 C-8.86479004 4.30070271 -11.90103853 4.33345717 -14.9375 4.375 C-14.9375 5.035 -14.9375 5.695 -14.9375 6.375 C-16.2575 5.715 -17.5775 5.055 -18.9375 4.375 C-18.2775 4.375 -17.6175 4.375 -16.9375 4.375 C-16.9375 3.715 -16.9375 3.055 -16.9375 2.375 C-11.18092759 0.7414664 -5.97714593 -0.01122352 0 0 Z " fill="#181111" transform="translate(150.9375,36.625)"/>
<path d="M0 0 C0.33 0 0.66 0 1 0 C1.2164861 5.05586903 0.64950869 8.82224032 -1.1171875 13.5546875 C-1.55933594 14.74578125 -2.00148437 15.936875 -2.45703125 17.1640625 C-2.92496094 18.38867188 -3.39289063 19.61328125 -3.875 20.875 C-4.34072781 22.13509027 -4.80557959 23.39550469 -5.26953125 24.65625 C-8.73041373 33.86520687 -8.73041373 33.86520687 -11 35 C-12.53266582 31.93466836 -12.10276471 28.73245728 -12.0625 25.375 C-12.05798828 24.66859375 -12.05347656 23.9621875 -12.04882812 23.234375 C-12.03703875 21.48954725 -12.01910324 19.744763 -12 18 C-11.34 17.67 -10.68 17.34 -10 17 C-9.34 17.33 -8.68 17.66 -8 18 C-7.86271484 17.23429687 -7.86271484 17.23429687 -7.72265625 16.453125 C-6.70979202 13.01486157 -5.06779568 9.92665535 -3.4375 6.75 C-3.10814453 6.1003125 -2.77878906 5.450625 -2.43945312 4.78125 C-1.62992435 3.18565706 -0.81544958 1.59257517 0 0 Z " fill="#080404" transform="translate(178,67)"/>
<path d="M0 0 C4.61939215 0.33859419 6.87032349 2.27361561 10.1875 5.375 C11.04730469 6.16648438 11.90710938 6.95796875 12.79296875 7.7734375 C15 10 15 10 17 13 C9.2501365 12.47458553 2.3549914 10.44408524 -5 8 C-4.34 7.67 -3.68 7.34 -3 7 C-2.29618843 5.01276732 -1.6288189 3.01222047 -1 1 C-0.67 0.67 -0.34 0.34 0 0 Z " fill="#C1BDB1" transform="translate(121,171)"/>
<path d="M0 0 C0.495 0.99 0.495 0.99 1 2 C1.66 2 2.32 2 3 2 C2.10118325 9.56245816 0.09946702 14.36003648 -5 20 C-5.53882813 20.61875 -6.07765625 21.2375 -6.6328125 21.875 C-14.5057799 30.3704811 -22.6403581 32.82365377 -34 34 C-34 33.01 -34 32.02 -34 31 C-33.02160156 30.78085938 -32.04320312 30.56171875 -31.03515625 30.3359375 C-19.91867511 27.7061865 -10.52964773 23.97293464 -4 14 C-1.77233479 9.50098987 -0.62301653 4.9841322 0 0 Z " fill="#8D7E76" transform="translate(201,125)"/>
<path d="M0 0 C6.20970773 -0.33266291 10.28264895 0.54970669 16 3 C12.90521121 4.03159626 11.47368607 3.97482862 8.3125 3.5625 C7.50425781 3.46066406 6.69601563 3.35882813 5.86328125 3.25390625 C5.24839844 3.17011719 4.63351563 3.08632812 4 3 C-0.40910003 10.1385429 -2.96493594 16.88860993 -5 25 C-5.66 25 -6.32 25 -7 25 C-6.95875 26.258125 -6.9175 27.51625 -6.875 28.8125 C-6.7609626 32.29064073 -6.94074319 32.91111478 -9 36 C-9.18036669 30.10802149 -8.61981455 24.86512027 -7.3125 19.125 C-7.13750977 18.34141113 -6.96251953 17.55782227 -6.78222656 16.75048828 C-5.34749678 10.69983467 -3.2634325 5.32313989 0 0 Z " fill="#B86D73" transform="translate(95,187)"/>
<path d="M0 0 C3.55487542 0.26332411 4.79615651 0.78893777 7.31640625 3.3984375 C8.05761719 4.38070312 8.79882812 5.36296875 9.5625 6.375 C12.94138473 10.81381218 15.82900561 13.7882822 20.6875 16.5 C23 18 23 18 24 21 C24.66 21.33 25.32 21.66 26 22 C22.87709365 21.51421457 20.00419641 21.0013988 17 20 C16.34 20.33 15.68 20.66 15 21 C14.34 21.33 13.68 21.66 13 22 C12.01 21.67 11.02 21.34 10 21 C10.99 19.35 11.98 17.7 13 16 C12.34 15.38125 11.68 14.7625 11 14.125 C9 12 9 12 9 10 C8.443125 9.773125 7.88625 9.54625 7.3125 9.3125 C4.31958801 7.61382022 2.26472763 5.57927313 0 3 C0 2.01 0 1.02 0 0 Z " fill="#7B424A" transform="translate(181,235)"/>
<path d="M0 0 C0.33 0.66 0.66 1.32 1 2 C0.30175781 3.81591797 0.30175781 3.81591797 -0.796875 6.1171875 C-3.76076964 13.20553794 -4.3992235 20.5652431 -5.25 28.125 C-5.42322312 29.57306747 -5.59769362 31.0209863 -5.7734375 32.46875 C-6.19666412 35.9775725 -6.60305207 39.48809574 -7 43 C-7.66 42.67 -8.32 42.34 -9 42 C-9.02725341 40.2709226 -9.04650987 38.54171824 -9.0625 36.8125 C-9.07410156 35.84957031 -9.08570312 34.88664062 -9.09765625 33.89453125 C-9.00486622 31.14423487 -8.62111685 28.67520409 -8 26 C-8.66 26 -9.32 26 -10 26 C-9.67 22.37 -9.34 18.74 -9 15 C-7.68 15 -6.36 15 -5 15 C-5.061875 13.989375 -5.12375 12.97875 -5.1875 11.9375 C-4.97113455 7.39382549 -4.07864045 4.99738548 -2 1 C-1.34 0.67 -0.68 0.34 0 0 Z " fill="#8C5C60" transform="translate(92,187)"/>
<path d="M0 0 C7.40141557 0.36400404 7.40141557 0.36400404 10 3.125 C11.19407735 6.55797239 11.21233964 9.39022605 11 13 C10.34 13 9.68 13 9 13 C8.67 12.34 8.34 11.68 8 11 C7.67 13.64 7.34 16.28 7 19 C4.49926202 17.44274531 3.19474663 16.55737827 2.20703125 13.73046875 C2.07683594 12.89128906 1.94664062 12.05210938 1.8125 11.1875 C1.66683594 10.30707031 1.52117187 9.42664063 1.37109375 8.51953125 C1.24863281 7.68808594 1.12617188 6.85664062 1 6 C0.79375 4.80375 0.5875 3.6075 0.375 2.375 C0.25125 1.59125 0.1275 0.8075 0 0 Z " fill="#070606" transform="translate(189,67)"/>
<path d="M0 0 C14.92194426 -0.44104269 26.08172502 4.71666448 39.44140625 10.86328125 C42.91006602 12.40431941 46.42778516 13.71939468 50 15 C50.680625 14.2575 50.680625 14.2575 51.375 13.5 C53 12 53 12 55 12 C55 12.66 55 13.32 55 14 C54.34 14 53.68 14 53 14 C52.67 15.32 52.34 16.64 52 18 C48.60802966 17.41837062 45.73988111 16.57311833 42.62890625 15.109375 C41.81365479 14.73167969 40.99840332 14.35398438 40.15844727 13.96484375 C39.30178467 13.56394531 38.44512207 13.16304687 37.5625 12.75 C21.28042523 4.82742993 21.28042523 4.82742993 3.6875 1.9375 C2.470625 1.958125 1.25375 1.97875 0 2 C0 1.34 0 0.68 0 0 Z " fill="#F2EAEA" transform="translate(92,184)"/>
<path d="M0 0 C3.87447457 1.33696658 6.47259597 2.99975268 9.5 5.75 C10.59828125 6.73226562 10.59828125 6.73226562 11.71875 7.734375 C12.4715625 8.48203125 13.224375 9.2296875 14 10 C14.92167969 10.85335937 15.84335938 11.70671875 16.79296875 12.5859375 C20.27143098 16.84681806 19.30016291 21.69665141 18.8125 26.875 C18.74224609 27.84953125 18.67199219 28.8240625 18.59960938 29.828125 C18.42361356 32.22166815 18.22316279 34.61047086 18 37 C14.48197311 35.74833586 11.95810067 34.37397315 9.1875 31.875 C8.58292969 31.33617187 7.97835937 30.79734375 7.35546875 30.2421875 C6.90816406 29.83226562 6.46085937 29.42234375 6 29 C9.92896395 29 13.19893228 30.00299863 17 31 C17.37153753 20.926277 17.37153753 20.926277 13.5625 12.0625 C11.94698159 10.49935522 11.94698159 10.49935522 10 9 C9.13503906 8.28972656 8.27007812 7.57945312 7.37890625 6.84765625 C5.59656365 5.40914144 3.79659297 3.99208726 1.9765625 2.6015625 C1.32429688 2.07304687 0.67203125 1.54453125 0 1 C0 0.67 0 0.34 0 0 Z " fill="#A34C50" transform="translate(117,195)"/>
<path d="M0 0 C3.4298348 1.11994606 5.32618539 2.68465687 8.0625 5 C8.97 5.350625 9.8775 5.70125 10.8125 6.0625 C11.92625 6.5265625 11.92625 6.5265625 13.0625 7 C13.3925 7.99 13.7225 8.98 14.0625 10 C15.89271609 11.16154965 15.89271609 11.16154965 18.0625 12.0625 C21.9603186 13.7956372 21.9603186 13.7956372 23.0625 16 C22.381875 15.690625 21.70125 15.38125 21 15.0625 C17.98562155 13.85434136 17.98562155 13.85434136 14.3125 13.5 C13.24 13.335 12.1675 13.17 11.0625 13 C10.0625 11 10.0625 11 9.0625 8 C8.4025 8 7.7425 8 7.0625 8 C6.7325 8.99 6.4025 9.98 6.0625 11 C3.5875 10.01 3.5875 10.01 1.0625 9 C1.0625 7.68 1.0625 6.36 1.0625 5 C-1.5775 4.67 -4.2175 4.34 -6.9375 4 C-4.66158114 1.11133375 -3.77305546 0 0 0 Z " fill="#E2D5C6" transform="translate(256.9375,261)"/>
<path d="M0 0 C1.65 0.33 3.3 0.66 5 1 C5.01417969 1.67546875 5.02835938 2.3509375 5.04296875 3.046875 C5.18904952 5.77898027 5.40199249 8.32805157 6 11 C7.62626404 12.38232443 9.2925002 13.71937515 11 15 C12.04352848 18.60424375 12 22.26476 12 26 C10.8274869 25.04882866 9.66212985 24.08882991 8.5 23.125 C7.8503125 22.59132812 7.200625 22.05765625 6.53125 21.5078125 C6.0259375 21.01023438 5.520625 20.51265625 5 20 C5 18 5 18 6.5 16.375 C6.995 15.92125 7.49 15.4675 8 15 C5.03 14.505 5.03 14.505 2 14 C2.66 13.67 3.32 13.34 4 13 C3.34 10.36 2.68 7.72 2 5 C1.01 8.465 1.01 8.465 0 12 C-0.33 12 -0.66 12 -1 12 C-0.67 8.04 -0.34 4.08 0 0 Z " fill="#A25D5C" transform="translate(166,206)"/>
<path d="M0 0 C0.33 0.66 0.66 1.32 1 2 C1.66 2 2.32 2 3 2 C2.34 5.96 1.68 9.92 1 14 C0.34 14 -0.32 14 -1 14 C-1.12117187 14.74765625 -1.24234375 15.4953125 -1.3671875 16.265625 C-1.53476563 17.25046875 -1.70234375 18.2353125 -1.875 19.25 C-2.03742188 20.22453125 -2.19984375 21.1990625 -2.3671875 22.203125 C-2.94855848 24.77264117 -3.70840265 26.72071056 -5 29 C-5.36262997 26.56348622 -5.71538964 24.12623023 -6.0625 21.6875 C-6.16626953 20.99720703 -6.27003906 20.30691406 -6.37695312 19.59570312 C-6.83808836 16.30415164 -7.06594625 14.19783876 -6 11 C-5.01 10.67 -4.02 10.34 -3 10 C-1.25327015 6.5065403 0 3.93154432 0 0 Z " fill="#322623" transform="translate(182,68)"/>
<path d="M0 0 C7.95345331 5.54331595 13.93253994 14.85201711 19 23 C19 23.66 19 24.32 19 25 C17.28975524 26.60861731 15.50561171 28.13938343 13.6875 29.625 C12.70136719 30.44226563 11.71523437 31.25953125 10.69921875 32.1015625 C8 34 8 34 5 34 C5.72316406 33.18595703 5.72316406 33.18595703 6.4609375 32.35546875 C7.09257812 31.64003906 7.72421875 30.92460937 8.375 30.1875 C9.31472656 29.12595703 9.31472656 29.12595703 10.2734375 28.04296875 C12.140599 25.91196181 12.140599 25.91196181 14 23 C13.66601944 19.61924663 12.13651909 17.57487136 10.05859375 14.9609375 C9.18364258 13.84332031 9.18364258 13.84332031 8.29101562 12.703125 C7.67935547 11.93484375 7.06769531 11.1665625 6.4375 10.375 C5.22356222 8.8445486 4.01370188 7.31085119 2.80859375 5.7734375 C2.00119751 4.75902588 2.00119751 4.75902588 1.17749023 3.72412109 C0 2 0 2 0 0 Z " fill="#964346" transform="translate(144,249)"/>
<path d="M0 0 C1.65 0.33 3.3 0.66 5 1 C5.33266291 7.20970773 4.45029331 11.28264895 2 17 C0.02 17 -1.96 17 -4 17 C-3.36448793 14.229661 -2.51457815 11.69015441 -1.4375 9.0625 C-0.22542745 5.91464167 0.31985528 3.41178961 0 0 Z " fill="#695857" transform="translate(350,273)"/>
<path d="M0 0 C2 1 2 1 3.0625 3.8125 C3.76526962 6.2019167 4.44016804 8.57406149 5 11 C3.02 11 1.04 11 -1 11 C-1 12.32 -1 13.64 -1 15 C-1.99 15 -2.98 15 -4 15 C-4.52992692 13.54494642 -5.0486789 12.08581873 -5.5625 10.625 C-5.85253906 9.81289062 -6.14257812 9.00078125 -6.44140625 8.1640625 C-7 6 -7 6 -6 4 C-5.67 4.99 -5.34 5.98 -5 7 C-4.34 6.67 -3.68 6.34 -3 6 C-2.835 5.175 -2.67 4.35 -2.5 3.5 C-2.335 2.675 -2.17 1.85 -2 1 C-1.34 0.67 -0.68 0.34 0 0 Z " fill="#232321" transform="translate(82,191)"/>
<path d="M0 0 C0.66 0 1.32 0 2 0 C4.8917284 7.51333004 6.64323227 13.92386148 6 22 C3.69 21.34 1.38 20.68 -1 20 C0.32 19.67 1.64 19.34 3 19 C3 17.68 3 16.36 3 15 C2.34 15 1.68 15 1 15 C1 13.02 1 11.04 1 9 C0.34 9 -0.32 9 -1 9 C-0.67 6.03 -0.34 3.06 0 0 Z " fill="#AD9C91" transform="translate(186,64)"/>
<path d="M0 0 C-1.39298555 3.00131187 -3.03955068 5.51057409 -5.0625 8.125 C-7.23226195 10.93627263 -7.23226195 10.93627263 -9 14 C-10.32 13.67 -11.64 13.34 -13 13 C-11.35 9.7 -9.7 6.4 -8 3 C-10.97 2.67 -13.94 2.34 -17 2 C-17 1.67 -17 1.34 -17 1 C-11.29014022 0.25983299 -5.75813575 -0.10469338 0 0 Z " fill="#6F6764" transform="translate(319,276)"/>
<path d="M0 0 C1.32 0 2.64 0 4 0 C7.77304004 5.54165256 8.54330269 9.34454208 8 16 C6.35 16 4.7 16 3 16 C1.91681831 10.6787385 0.847126 5.36513131 0 0 Z " fill="#F1EFEC" transform="translate(229,274)"/>
<path d="M0 0 C0.66 0 1.32 0 2 0 C2.33 0.66 2.66 1.32 3 2 C3.66 2.33 4.32 2.66 5 3 C4.67 3.66 4.34 4.32 4 5 C5.0828125 4.6596875 5.0828125 4.6596875 6.1875 4.3125 C9.75584692 3.91601701 11.13871099 4.95622213 14 7 C11.99967627 8.00016187 10.16874252 8.49396008 8 9 C8.66 10.65 9.32 12.3 10 14 C8.62437146 12.71034824 7.29233607 11.37310707 6 10 C6 9.34 6 8.68 6 8 C5.01 8.33 4.02 8.66 3 9 C3 8.34 3 7.68 3 7 C2.34 7 1.68 7 1 7 C1 8.65 1 10.3 1 12 C0.34 11.67 -0.32 11.34 -1 11 C-0.67 8.69 -0.34 6.38 0 4 C-1.32 3.34 -2.64 2.68 -4 2 C-3.01 2 -2.02 2 -1 2 C-0.67 1.34 -0.34 0.68 0 0 Z " fill="#C7BAAD" transform="translate(264,269)"/>
<path d="M0 0 C3.35791454 1.39374115 4.86298317 2.82186955 6.796875 5.87890625 C7.28027344 6.63494141 7.76367188 7.39097656 8.26171875 8.16992188 C8.75285156 8.95947266 9.24398437 9.74902344 9.75 10.5625 C10.25660156 11.35591797 10.76320313 12.14933594 11.28515625 12.96679688 C15 18.82944112 15 18.82944112 15 20 C10.05 20 5.1 20 0 20 C2.98646769 18.00902154 5.59687262 17.05875074 9 16 C7.56691865 12.04093183 5.66858051 8.71281819 3.375 5.1875 C2.74335937 4.21167969 2.11171875 3.23585938 1.4609375 2.23046875 C0.97882813 1.49441406 0.49671875 0.75835937 0 0 Z " fill="#934445" transform="translate(113,270)"/>
<path d="M0 0 C7.26 0 14.52 0 22 0 C22 0.33 22 0.66 22 1 C15.18446602 2.96601942 15.18446602 2.96601942 12.625 3.4375 C12.08875 3.623125 11.5525 3.80875 11 4 C10.67 4.99 10.34 5.98 10 7 C9.34 6.67 8.68 6.34 8 6 C8.33 5.01 8.66 4.02 9 3 C6.02934491 3.34227572 6.02934491 3.34227572 3 4 C2.67 4.66 2.34 5.32 2 6 C1.34 4.02 0.68 2.04 0 0 Z " fill="#FCFBF8" transform="translate(288,278)"/>
<path d="M0 0 C7.90153897 -0.53569756 14.63378387 1.10424215 22 4 C22.66 4.66 23.32 5.32 24 6 C22.56206608 5.68950274 21.1246682 5.3765224 19.6875 5.0625 C18.88699219 4.88847656 18.08648437 4.71445313 17.26171875 4.53515625 C15 4 15 4 12 3 C10.60560336 2.93334624 9.20830125 2.91461801 7.8125 2.9375 C6.554375 2.958125 5.29625 2.97875 4 3 C3.66226563 3.90363281 3.32453125 4.80726563 2.9765625 5.73828125 C2.53054687 6.91777344 2.08453125 8.09726563 1.625 9.3125 C1.18414062 10.48425781 0.74328125 11.65601563 0.2890625 12.86328125 C-1 16 -1 16 -3 19 C-2.60406637 14.56554334 -2.05449707 10.82105672 -0.375 6.6875 C1.39156059 3.12842769 1.39156059 3.12842769 0 0 Z " fill="#6B4B4E" transform="translate(91,185)"/>
<path d="M0 0 C0.33 0 0.66 0 1 0 C1.11381518 6.19660442 1.00688985 12.37272462 0.6875 18.5625 C0.62949219 19.73941406 0.57148437 20.91632813 0.51171875 22.12890625 C0.34285156 23.07636719 0.17398438 24.02382812 0 25 C-0.99 25.66 -1.98 26.32 -3 27 C-3 21.06 -3 15.12 -3 9 C-2.34 8.67 -1.68 8.34 -1 8 C-0.53476937 6.10466658 -0.53476937 6.10466658 -0.375 3.9375 C-0.25125 2.638125 -0.1275 1.33875 0 0 Z " fill="#B1656A" transform="translate(88,212)"/>
<path d="M0 0 C0.33 0.99 0.66 1.98 1 3 C0.21625 3.515625 -0.5675 4.03125 -1.375 4.5625 C-4.55594248 7.5162323 -5.11493693 9.81606548 -6 14 C-6.33 13.34 -6.66 12.68 -7 12 C-8.32 12 -9.64 12 -11 12 C-10.505 13.155 -10.01 14.31 -9.5 15.5 C-7.84437043 19.85282892 -7.75224395 23.37522033 -8 28 C-8.66 28 -9.32 28 -10 28 C-10.13277344 27.26394531 -10.26554688 26.52789062 -10.40234375 25.76953125 C-10.66724609 24.30580078 -10.66724609 24.30580078 -10.9375 22.8125 C-11.11152344 21.84957031 -11.28554687 20.88664062 -11.46484375 19.89453125 C-11.9523735 17.25760028 -12.46671105 14.6280095 -13 12 C-12.2575 11.79375 -11.515 11.5875 -10.75 11.375 C-7.20398577 9.60199289 -6.12419602 7.2890777 -4 4 C-1.75 2.625 -1.75 2.625 0 2 C0 1.34 0 0.68 0 0 Z " fill="#847B79" transform="translate(240,262)"/>
<path d="M0 0 C11.52164009 -0.55353075 11.52164009 -0.55353075 17 3 C17 3.33 17 3.66 17 4 C16.06027344 4.09087891 16.06027344 4.09087891 15.1015625 4.18359375 C14.28429687 4.26738281 13.46703125 4.35117187 12.625 4.4375 C11.81289063 4.51871094 11.00078125 4.59992188 10.1640625 4.68359375 C7.95727195 4.89090114 7.95727195 4.89090114 6 6 C3.96855359 5.06553465 1.96466413 4.06775224 0 3 C0 2.01 0 1.02 0 0 Z " fill="#D1C2B3" transform="translate(270,268)"/>
<path d="M0 0 C1.875 0.125 1.875 0.125 4 1 C6.28258584 5.67930096 6.17523261 9.91825435 6 15 C4.68 15 3.36 15 2 15 C2.061875 14.13375 2.12375 13.2675 2.1875 12.375 C1.97505756 8.55103608 0.7225037 6.37011594 -1 3 C-0.67 2.01 -0.34 1.02 0 0 Z " fill="#F4EDEB" transform="translate(224,275)"/>
<path d="M0 0 C5.5952381 0.5952381 5.5952381 0.5952381 8 3 C7.69208308 4.671549 7.35613097 6.33805547 7 8 C7.36856864 10.23167185 7.36856864 10.23167185 8 12 C3.60708214 8.68090651 1.1772135 6.20112114 -1 1 C-0.67 0.67 -0.34 0.34 0 0 Z " fill="#F6E8DA" transform="translate(272,276)"/>
<path d="M0 0 C0.66 0.33 1.32 0.66 2 1 C2.625 3.5625 2.625 3.5625 3 6 C3.66 6 4.32 6 5 6 C5.33 5.34 5.66 4.68 6 4 C6.33 5.98 6.66 7.96 7 10 C6.01 10.33 5.02 10.66 4 11 C3.67 10.34 3.34 9.68 3 9 C2.34 9.66 1.68 10.32 1 11 C-1.625 11.625 -1.625 11.625 -4 12 C-4 10.02 -4 8.04 -4 6 C-3.01 6.33 -2.02 6.66 -1 7 C-0.67 4.69 -0.34 2.38 0 0 Z " fill="#3B3730" transform="translate(196,77)"/>
<path d="M0 0 C1.66611905 -0.042721 3.33382885 -0.04063832 5 0 C5.33 0.33 5.66 0.66 6 1 C5.90913549 3.53541298 5.7629055 6.03554784 5.5625 8.5625 C5.51029297 9.27341797 5.45808594 9.98433594 5.40429688 10.71679688 C5.27425893 12.47821999 5.13773103 14.23916173 5 16 C4.34 16 3.68 16 3 16 C1.91681831 10.6787385 0.847126 5.36513131 0 0 Z " fill="#291E1D" transform="translate(189,67)"/>
<path d="M0 0 C0.66 0 1.32 0 2 0 C3.44207941 2.88415883 3.09394887 5.41721528 3.0625 8.625 C3.05347656 9.81351563 3.04445312 11.00203125 3.03515625 12.2265625 C3.02355469 13.14179687 3.01195312 14.05703125 3 15 C2.01 15 1.02 15 0 15 C-1.6117046 10.1648862 -1.60116168 4.80348505 0 0 Z " fill="#FAF8F1" transform="translate(184,90)"/>
<path d="M0 0 C3 2 3 2 4 4 C3.83073547 7.02492102 3.38667668 9.99251474 3 13 C7.29 13 11.58 13 16 13 C16 13.33 16 13.66 16 14 C11.05 14 6.1 14 1 14 C0.01 11.69 -0.98 9.38 -2 7 C0.475 7.495 0.475 7.495 3 8 C2.505 7.05125 2.01 6.1025 1.5 5.125 C0 2 0 2 0 0 Z " fill="#958F89" transform="translate(285,275)"/>
<path d="M0 0 C6.20970773 -0.33266291 10.28264895 0.54970669 16 3 C12.79420345 4.06859885 11.91757004 3.86863831 8.75 3.1875 C5.77308779 2.77823547 4.47197854 2.72145529 1.85546875 4.265625 C0.12962886 5.77002312 -1.46767126 7.30014979 -3 9 C-2.44271087 5.65626525 -1.64826111 2.96687001 0 0 Z " fill="#C47E84" transform="translate(95,187)"/>
<path d="M0 0 C1.0725 0.103125 2.145 0.20625 3.25 0.3125 C0.56158141 2.56495881 -1.39641875 4.19463958 -4.75 5.3125 C-4.42 6.3025 -4.09 7.2925 -3.75 8.3125 C-4.74 9.7975 -4.74 9.7975 -5.75 11.3125 C-5.44159401 13.46524948 -5.44159401 13.46524948 -4.75 15.3125 C-6.25 14.25 -6.25 14.25 -7.75 12.3125 C-8.27640423 8.25166739 -8.11941991 6.00700943 -6.1875 2.375 C-3.75 0.3125 -3.75 0.3125 0 0 Z " fill="#D5D0CB" transform="translate(241.75,265.6875)"/>
<path d="M0 0 C1.75 0.125 1.75 0.125 4 1 C6.85757802 4.32096905 8.07852567 5.9399034 7.75 10.375 C7.5025 11.24125 7.255 12.1075 7 13 C6.67 12.34 6.34 11.68 6 11 C5.34 11 4.68 11 4 11 C3.32591692 9.73308493 2.66099503 8.46129251 2 7.1875 C1.62875 6.47980469 1.2575 5.77210938 0.875 5.04296875 C0 3 0 3 0 0 Z " fill="#C2767F" transform="translate(159,199)"/>
<path d="M0 0 C2.37948772 0.17625835 3.70225849 0.69719773 5.37890625 2.40234375 C6.62115486 3.90649092 7.81376056 5.45129851 9 7 C8.67 7.66 8.34 8.32 8 9 C6.68 8.67 5.36 8.34 4 8 C4 8.66 4 9.32 4 10 C6.31 10 8.62 10 11 10 C11.33 10.66 11.66 11.32 12 12 C4.25 12.125 4.25 12.125 2 11 C2.185625 10.2575 2.37125 9.515 2.5625 8.75 C2.99848823 6.00950257 2.97224771 4.5631985 2 2 C1.34 1.34 0.68 0.68 0 0 Z " fill="#DDCDCC" transform="translate(145,193)"/>
<path d="M0 0 C4.76718372 5.47343316 9.4754726 11.49809892 9 19 C8.67 18.34 8.34 17.68 8 17 C7.34 17 6.68 17 6 17 C4.66666667 14.33333333 3.33333333 11.66666667 2 9 C1.443125 7.96359375 1.443125 7.96359375 0.875 6.90625 C-0.22447698 4.51096087 -0.14467982 2.60423684 0 0 Z " fill="#BDA7A3" transform="translate(194,108)"/>
<path d="M0 0 C6.72 0.72 6.72 0.72 8 2 C8.04063832 3.66617115 8.042721 5.33388095 8 7 C5.36 6.67 2.72 6.34 0 6 C-0.38218767 4.34385343 -0.71395102 2.67542976 -1 1 C-0.67 0.67 -0.34 0.34 0 0 Z " fill="#C3ABB7" transform="translate(240,241)"/>
<path d="M0 0 C6.69393998 -0.19785044 12.61593936 -0.29826183 19 2 C20.134375 2.37125 21.26875 2.7425 22.4375 3.125 C23.283125 3.41375 24.12875 3.7025 25 4 C25 4.99 25 5.98 25 7 C24.35933594 6.80664062 23.71867187 6.61328125 23.05859375 6.4140625 C21.26020415 5.8726695 19.46065815 5.33510741 17.66015625 4.80078125 C15.5560407 4.16738377 13.46319345 3.49656337 11.375 2.8125 C7.40615865 1.85703819 4.06992365 1.85719566 0 2 C0 1.34 0 0.68 0 0 Z " fill="#E2D9D8" transform="translate(92,184)"/>
<path d="M0 0 C4.37653129 0.47620289 6.06538005 1.66899889 8.8125 5.0625 C9.41707031 5.79597656 10.02164063 6.52945313 10.64453125 7.28515625 C11.09183594 7.85105469 11.53914062 8.41695312 12 9 C10.23046875 9.66796875 10.23046875 9.66796875 8 10 C6.11328125 8.92578125 6.11328125 8.92578125 4.3125 7.3125 C3.71050781 6.79300781 3.10851562 6.27351562 2.48828125 5.73828125 C0.84575428 3.81984424 0.40298513 2.46626903 0 0 Z " fill="#905058" transform="translate(181,235)"/>
<path d="M0 0 C2.475 0.99 2.475 0.99 5 2 C5.125 5.375 5.125 5.375 5 9 C4.34 9.66 3.68 10.32 3 11 C0.03 9.35 -2.94 7.7 -6 6 C-6 5.67 -6 5.34 -6 5 C-2.7 5 0.6 5 4 5 C2.68 3.35 1.36 1.7 0 0 Z " fill="#99484B" transform="translate(135,232)"/>
<path d="M0 0 C0.66 0.33 1.32 0.66 2 1 C0.4198632 3.15473199 -1.10646634 5.10646634 -3 7 C-4.2375 8.299375 -4.2375 8.299375 -5.5 9.625 C-8 12 -8 12 -10 12 C-9.68861865 8.7220036 -9.32674163 7.31932973 -6.93359375 4.98046875 C-6.10988281 4.38878906 -5.28617187 3.79710937 -4.4375 3.1875 C-3.61121094 2.58292969 -2.78492187 1.97835937 -1.93359375 1.35546875 C-1.29550781 0.90816406 -0.65742187 0.46085937 0 0 Z " fill="#0B080A" transform="translate(114,47)"/>
<path d="M0 0 C1.65 0.33 3.3 0.66 5 1 C5 4.96 5 8.92 5 13 C2.4345406 10.4345406 2.45953913 8.52313332 2 5 C1.01 8.465 1.01 8.465 0 12 C-0.33 12 -0.66 12 -1 12 C-0.67 8.04 -0.34 4.08 0 0 Z " fill="#904954" transform="translate(166,206)"/>
<path d="M0 0 C0.99 0.66 1.98 1.32 3 2 C2.34 2 1.68 2 1 2 C1.66 4.64 2.32 7.28 3 10 C2.01 10 1.02 10 0 10 C-0.33 10.66 -0.66 11.32 -1 12 C-1.33 11.34 -1.66 10.68 -2 10 C-3.89533342 9.53476937 -3.89533342 9.53476937 -6.0625 9.375 C-7.361875 9.25125 -8.66125 9.1275 -10 9 C-10 8.67 -10 8.34 -10 8 C-7.36 7.67 -4.72 7.34 -2 7 C-2 5.68 -2 4.36 -2 3 C-1.34 3 -0.68 3 0 3 C0 2.01 0 1.02 0 0 Z " fill="#68343B" transform="translate(158,197)"/>
<path d="M0 0 C3 1 3 1 4.16796875 2.63671875 C6.30716379 6.93969729 7.4926146 10.07385397 7 15 C2.97805546 10.28461674 0 6.33797061 0 0 Z " fill="#E1DEDE" transform="translate(150,184)"/>
<path d="M0 0 C4.29 0 8.58 0 13 0 C13 4.13643553 12.84767359 4.69802433 10.5 7.75 C10.0359375 8.36359375 9.571875 8.9771875 9.09375 9.609375 C8.55234375 10.29773438 8.55234375 10.29773438 8 11 C7.01 10.67 6.02 10.34 5 10 C6.33463542 8.53515625 7.66927083 7.0703125 9.00390625 5.60546875 C9.33261719 5.07566406 9.66132813 4.54585938 10 4 C9.67 3.01 9.34 2.02 9 1 C6.03 1 3.06 1 0 1 C0 0.67 0 0.34 0 0 Z " fill="#C2888C" transform="translate(224,262)"/>
<path d="M0 0 C1.98 0 3.96 0 6 0 C6 2.97 6 5.94 6 9 C5.01 9 4.02 9 3 9 C0 3.375 0 3.375 0 0 Z " fill="#B89BA9" transform="translate(241,247)"/>
<path d="M0 0 C0.88365234 0.00451172 1.76730469 0.00902344 2.67773438 0.01367188 C4.84768559 0.02540134 7.01760172 0.04333505 9.1875 0.0625 C9.1875 0.3925 9.1875 0.7225 9.1875 1.0625 C7.79724609 1.15337891 7.79724609 1.15337891 6.37890625 1.24609375 C4.58259766 1.37177734 4.58259766 1.37177734 2.75 1.5 C1.55503906 1.58121094 0.36007812 1.66242188 -0.87109375 1.74609375 C-3.69820244 1.73906114 -3.69820244 1.73906114 -4.8125 3.0625 C-6.81208364 3.10330783 -8.81295254 3.10504356 -10.8125 3.0625 C-11.1425 3.7225 -11.4725 4.3825 -11.8125 5.0625 C-12.1425 4.0725 -12.4725 3.0825 -12.8125 2.0625 C-13.4725 1.7325 -14.1325 1.4025 -14.8125 1.0625 C-9.89747242 -0.22985715 -5.03959898 -0.04885517 0 0 Z " fill="#D0B9AB" transform="translate(326.8125,270.9375)"/>
<path d="M0 0 C0.33 0 0.66 0 1 0 C1.33 2.97 1.66 5.94 2 9 C2.99 7.68 3.98 6.36 5 5 C6.21386936 8.64160808 5.6674695 9.33165469 4.0625 12.6875 C3.68222656 13.49574219 3.30195313 14.30398437 2.91015625 15.13671875 C2.45962891 16.05904297 2.45962891 16.05904297 2 17 C0 15 0 15 -0.1953125 11.5234375 C-0.18201493 10.14049032 -0.15816232 8.75761346 -0.125 7.375 C-0.11597656 6.66859375 -0.10695312 5.9621875 -0.09765625 5.234375 C-0.07407603 3.48943902 -0.03820461 1.74467705 0 0 Z " fill="#110B0A" transform="translate(166,85)"/>
<path d="M0 0 C0.99 0.33 1.98 0.66 3 1 C3 11.56 3 22.12 3 33 C2.67 33 2.34 33 2 33 C1.97494385 32.17798096 1.9498877 31.35596191 1.92407227 30.5090332 C1.80787345 26.77670626 1.68525495 23.04461683 1.5625 19.3125 C1.52318359 18.01892578 1.48386719 16.72535156 1.44335938 15.39257812 C1.40146484 14.14541016 1.35957031 12.89824219 1.31640625 11.61328125 C1.27974854 10.46641846 1.24309082 9.31955566 1.20532227 8.13793945 C1.02159702 5.33006722 0.6300618 2.73774186 0 0 Z " fill="#A85154" transform="translate(101,257)"/>
<path d="M0 0 C0.33 0.66 0.66 1.32 1 2 C1.66 2 2.32 2 3 2 C1.44191344 12.55808656 1.44191344 12.55808656 -3 17 C-2.25339288 11.27601207 -1.17122859 5.65146223 0 0 Z " fill="#968882" transform="translate(201,125)"/>
<path d="M0 0 C3 3 6 6 9 9 C5.7 9 2.4 9 -1 9 C-1 7.68 -1 6.36 -1 5 C-0.34 5 0.32 5 1 5 C0.67 3.35 0.34 1.7 0 0 Z " fill="#9F9791" transform="translate(265,281)"/>
<path d="M0 0 C0.66 0 1.32 0 2 0 C1.58846263 4.97093824 1.20399168 9.44508386 -1 14 C-1.99 14 -2.98 14 -4 14 C-3.21824485 9.15311808 -1.60155722 4.6233633 0 0 Z " fill="#564347" transform="translate(353,276)"/>
<path d="M0 0 C0.33 0.66 0.66 1.32 1 2 C-0.43359375 4.8203125 -0.43359375 4.8203125 -2.4375 8.125 C-3.09621094 9.22070312 -3.75492187 10.31640625 -4.43359375 11.4453125 C-4.95050781 12.28835937 -5.46742187 13.13140625 -6 14 C-6.99 13.34 -7.98 12.68 -9 12 C-7.55575365 8.76138697 -5.74227753 6.38030837 -3.375 3.75 C-2.74335937 3.04359375 -2.11171875 2.3371875 -1.4609375 1.609375 C-0.97882813 1.07828125 -0.49671875 0.5471875 0 0 Z " fill="#9A948D" transform="translate(126,154)"/>
<path d="M0 0 C3.88282378 0.22187564 4.96330697 0.96247304 7.75 3.8125 C10.64367816 7.91187739 10.64367816 7.91187739 11 11 C6.76730422 9.48832294 5.33731903 6.69447201 3 3 C1.37648891 1.20605554 1.37648891 1.20605554 0 0 Z " fill="#F5E9DE" transform="translate(277,272)"/>
<path d="M0 0 C0.33 1.32 0.66 2.64 1 4 C-0.98 4 -2.96 4 -5 4 C-5 5.32 -5 6.64 -5 8 C-5.99 8 -6.98 8 -8 8 C-8.66 6.02 -9.32 4.04 -10 2 C-2.25 0.875 -2.25 0.875 0 2 C0 1.34 0 0.68 0 0 Z " fill="#534848" transform="translate(86,198)"/>
<path d="M0 0 C5.28 0.99 10.56 1.98 16 3 C16 3.33 16 3.66 16 4 C10.47032059 4.71033431 5.50016964 5.30267176 0 4 C0 2.68 0 1.36 0 0 Z " fill="#A15A5D" transform="translate(205,254)"/>
<path d="M0 0 C5.445 1.485 5.445 1.485 11 3 C11 4.65 11 6.3 11 8 C7.63833578 7.40501518 5.78840322 6.25635842 3.25 4 C2.63640625 3.46375 2.0228125 2.9275 1.390625 2.375 C0.93171875 1.92125 0.4728125 1.4675 0 1 C0 0.67 0 0.34 0 0 Z " fill="#944446" transform="translate(123,223)"/>
<path d="M0 0 C-0.99 0.33 -1.98 0.66 -3 1 C-3 1.66 -3 2.32 -3 3 C-6.63 3 -10.26 3 -14 3 C-9.42497303 -1.57502697 -6.15041498 -1.28729616 0 0 Z " fill="#A38E87" transform="translate(353,272)"/>
<path d="M0 0 C1.32 0 2.64 0 4 0 C3.49287967 3.71888239 2.88391785 6.73454239 1 10 C0.34 10 -0.32 10 -1 10 C-0.67 6.7 -0.34 3.4 0 0 Z " fill="#997E7C" transform="translate(83,203)"/>
<path d="M0 0 C0.33 0 0.66 0 1 0 C1.66 4.95 2.32 9.9 3 15 C2.34 15 1.68 15 1 15 C-1 12 -1 12 -1 9 C-1.66 9 -2.32 9 -3 9 C-2.01 6.03 -1.02 3.06 0 0 Z " fill="#B5A89F" transform="translate(175,83)"/>
<path d="M0 0 C0.99 0 1.98 0 3 0 C3.33 0.99 3.66 1.98 4 3 C5.83021609 4.16154965 5.83021609 4.16154965 8 5.0625 C11.8978186 6.7956372 11.8978186 6.7956372 13 9 C12.319375 8.690625 11.63875 8.38125 10.9375 8.0625 C7.92312155 6.85434136 7.92312155 6.85434136 4.25 6.5 C3.1775 6.335 2.105 6.17 1 6 C0 4 0 4 -1 1 C-0.67 0.67 -0.34 0.34 0 0 Z " fill="#ECE0D4" transform="translate(267,268)"/>
<path d="M0 0 C1.62566606 0.47690204 3.25051311 0.95659666 4.875 1.4375 C5.77992187 1.70433594 6.68484375 1.97117188 7.6171875 2.24609375 C10 3 10 3 12 4 C11.67 5.32 11.34 6.64 11 8 C6.99698968 6.23867546 3.3971023 3.73867517 0 1 C0 0.67 0 0.34 0 0 Z " fill="#C87D84" transform="translate(116,193)"/>
<path d="M0 0 C0.33 1.65 0.66 3.3 1 5 C-1.64 4.34 -4.28 3.68 -7 3 C-7 2.67 -7 2.34 -7 2 C-8.65 1.67 -10.3 1.34 -12 1 C-12 0.67 -12 0.34 -12 0 C-7.74433453 -1.16063604 -4.3164922 -0.76173392 0 0 Z " fill="#8F6067" transform="translate(239,259)"/>
<path d="M0 0 C2.31 0.33 4.62 0.66 7 1 C6.34 2.32 5.68 3.64 5 5 C4.34 5 3.68 5 3 5 C3 5.66 3 6.32 3 7 C1.68 7 0.36 7 -1 7 C-0.67 4.69 -0.34 2.38 0 0 Z " fill="#E2E2DE" transform="translate(289,281)"/>
<path d="M0 0 C0.99 0.33 1.98 0.66 3 1 C3.33 1.99 3.66 2.98 4 4 C2.68 4.99 1.36 5.98 0 7 C-0.99 6.34 -1.98 5.68 -3 5 C-2.625 3.0625 -2.625 3.0625 -2 1 C-1.34 0.67 -0.68 0.34 0 0 Z " fill="#C7B5AD" transform="translate(188,142)"/>
<path d="M0 0 C0.33 0.66 0.66 1.32 1 2 C0.26821134 4.07196631 -0.55899003 6.1108552 -1.4375 8.125 C-1.91058594 9.22070312 -2.38367188 10.31640625 -2.87109375 11.4453125 C-3.24363281 12.28835937 -3.61617188 13.13140625 -4 14 C-4.33 14 -4.66 14 -5 14 C-5.383042 8.76509271 -4.3382052 5.58647943 -2 1 C-1.34 0.67 -0.68 0.34 0 0 Z " fill="#A19799" transform="translate(92,187)"/>
<path d="M0 0 C0.99 0 1.98 0 3 0 C4.13764351 4.26616316 5 7.56486311 5 12 C4.01 11.67 3.02 11.34 2 11 C2 8.69 2 6.38 2 4 C0.35 4 -1.3 4 -3 4 C-3.33 3.34 -3.66 2.68 -4 2 C-2.68 2 -1.36 2 0 2 C0 1.34 0 0.68 0 0 Z " fill="#282623" transform="translate(201,66)"/>
<path d="M0 0 C0 2.64 0 5.28 0 8 C-1.32 8 -2.64 8 -4 8 C-4.1875 5.125 -4.1875 5.125 -4 2 C-1 0 -1 0 0 0 Z " fill="#FCFCFA" transform="translate(237,282)"/>
<path d="M0 0 C4.39158329 1.4638611 4.87947433 3.97831338 7 8 C6.01 9.485 6.01 9.485 5 11 C4.15841464 9.73461631 3.32700252 8.46246221 2.5 7.1875 C1.80390625 6.12595703 1.80390625 6.12595703 1.09375 5.04296875 C0 3 0 3 0 0 Z " fill="#C0B4A8" transform="translate(278,274)"/>
<path d="M0 0 C1.32 0 2.64 0 4 0 C4.33 0.99 4.66 1.98 5 3 C2.69 4.65 0.38 6.3 -2 8 C-1.47731534 5.23723823 -0.89130413 2.6739124 0 0 Z " fill="#1C1917" transform="translate(92,71)"/>
<path d="M0 0 C2.97 0.99 5.94 1.98 9 3 C9 3.33 9 3.66 9 4 C5.37 4 1.74 4 -2 4 C-1.34 2.68 -0.68 1.36 0 0 Z " fill="#CD757E" transform="translate(85,286)"/>
<path d="M0 0 C0 0.66 0 1.32 0 2 C-3.3 2.66 -6.6 3.32 -10 4 C-10 3.01 -10 2.02 -10 1 C-6.59437148 0.22157062 -3.49234244 -0.09978121 0 0 Z " fill="#8E6F71" transform="translate(177,155)"/>
<path d="M0 0 C0.33 1.32 0.66 2.64 1 4 C-0.21484375 5.703125 -0.21484375 5.703125 -1.9375 7.25 C-2.50339844 7.77078125 -3.06929687 8.2915625 -3.65234375 8.828125 C-4.09707031 9.21484375 -4.54179687 9.6015625 -5 10 C-5.99 9.67 -6.98 9.34 -8 9 C-5.36 6.03 -2.72 3.06 0 0 Z " fill="#806D6F" transform="translate(197,139)"/>
<path d="M0 0 C0.33 0 0.66 0 1 0 C1.95261487 4.76307437 2.08333357 9.1666528 2 14 C1.67 14 1.34 14 1 14 C1 11.69 1 9.38 1 7 C0.34 7 -0.32 7 -1 7 C-1 7.66 -1 8.32 -1 9 C-1.66 9 -2.32 9 -3 9 C-2.01 6.03 -1.02 3.06 0 0 Z " fill="#7F7772" transform="translate(142,138)"/>
<path d="M0 0 C3 1 3 1 4.75 3.9375 C5.1625 4.948125 5.575 5.95875 6 7 C5.67 7.66 5.34 8.32 5 9 C3.8274869 8.04882866 2.66212985 7.08882991 1.5 6.125 C0.8503125 5.59132812 0.200625 5.05765625 -0.46875 4.5078125 C-0.9740625 4.01023438 -1.479375 3.51265625 -2 3 C-2 2.34 -2 1.68 -2 1 C-1.34 0.67 -0.68 0.34 0 0 Z " fill="#995156" transform="translate(173,223)"/>
<path d="M0 0 C0 0.66 0 1.32 0 2 C-0.66 2 -1.32 2 -2 2 C-2.33 3.32 -2.66 4.64 -3 6 C-7.75 5.25 -7.75 5.25 -10 3 C-9.34 2.67 -8.68 2.34 -8 2 C-7.01 2.33 -6.02 2.66 -5 3 C-4.319375 2.2575 -4.319375 2.2575 -3.625 1.5 C-2 0 -2 0 0 0 Z " fill="#E6DDDD" transform="translate(147,196)"/>
<path d="M0 0 C3.3 0.66 6.6 1.32 10 2 C9.67 2.66 9.34 3.32 9 4 C6.4375 4.625 6.4375 4.625 4 5 C4 4.34 4 3.68 4 3 C2.35 2.67 0.7 2.34 -1 2 C-0.67 1.34 -0.34 0.68 0 0 Z " fill="#8E6266" transform="translate(111,190)"/>
<path d="M0 0 C1.67542976 0.28604898 3.34385343 0.61781233 5 1 C5 3.31 5 5.62 5 8 C3 6 3 6 2 3 C1.01 3.495 1.01 3.495 0 4 C-0.33 3.01 -0.66 2.02 -1 1 C-0.67 0.67 -0.34 0.34 0 0 Z " fill="#131212" transform="translate(199,69)"/>
<path d="M0 0 C0 0.99 0 1.98 0 3 C-1.98 3.99 -1.98 3.99 -4 5 C-4 6.32 -4 7.64 -4 9 C-4.66 9 -5.32 9 -6 9 C-5.69381595 5.32579134 -5.24228216 4.21864487 -2.4375 1.6875 C-1.633125 1.130625 -0.82875 0.57375 0 0 Z " fill="#181413" transform="translate(110,50)"/>
<path d="M0 0 C1.32 0 2.64 0 4 0 C3.1875 2.4375 3.1875 2.4375 2 5 C1.01 5.33 0.02 5.66 -1 6 C-1.042721 4.33388095 -1.04063832 2.66617115 -1 1 C-0.67 0.67 -0.34 0.34 0 0 Z " fill="#D1D0CB" transform="translate(299,281)"/>
<path d="M0 0 C1.32 0 2.64 0 4 0 C5.2077558 3.62326739 4.54311128 4.64146369 3 8 C0.4345406 5.4345406 0.45953913 3.52313332 0 0 Z " fill="#EBE8E5" transform="translate(229,274)"/>
<path d="M0 0 C0.66 0 1.32 0 2 0 C2.226875 0.7425 2.45375 1.485 2.6875 2.25 C4.24407532 5.51139591 6.08518854 6.92894975 9 9 C6.23723823 8.47731534 3.6739124 7.89130413 1 7 C0.67 4.69 0.34 2.38 0 0 Z " fill="#C77D81" transform="translate(162,267)"/>
<path d="M0 0 C5.84615385 5.53846154 5.84615385 5.53846154 7 9 C6.67 9.99 6.34 10.98 6 12 C4.99466333 10.37829621 3.99588093 8.75252763 3 7.125 C2.443125 6.22007813 1.88625 5.31515625 1.3125 4.3828125 C0 2 0 2 0 0 Z " fill="#534B47" transform="translate(196,54)"/>
<path d="M0 0 C0.33 0.66 0.66 1.32 1 2 C1.66 2 2.32 2 3 2 C3 2.66 3 3.32 3 4 C1.1875 5.0625 1.1875 5.0625 -1 6 C-1.99 5.67 -2.98 5.34 -4 5 C-2.68 3.35 -1.36 1.7 0 0 Z " fill="#8E4449" transform="translate(195,251)"/>
<path d="M0 0 C0.33 0 0.66 0 1 0 C0.4140625 6.15234375 0.4140625 6.15234375 0 8 C-0.99 8.495 -0.99 8.495 -2 9 C-2.33 6.36 -2.66 3.72 -3 1 C-2.01 1.495 -2.01 1.495 -1 2 C-0.67 1.34 -0.34 0.68 0 0 Z " fill="#C27A77" transform="translate(85,240)"/>
<path d="M0 0 C0.99 0.33 1.98 0.66 3 1 C2.67 1.66 2.34 2.32 2 3 C2.66 3 3.32 3 4 3 C4 4.32 4 5.64 4 7 C3.01 6.67 2.02 6.34 1 6 C-0.1875 3.4375 -0.1875 3.4375 -1 1 C-0.67 0.67 -0.34 0.34 0 0 Z " fill="#B3919D" transform="translate(242,248)"/>
<path d="M0 0 C1.2065625 0.0309375 1.2065625 0.0309375 2.4375 0.0625 C1.4475 0.3925 0.4575 0.7225 -0.5625 1.0625 C-0.2325 2.7125 0.0975 4.3625 0.4375 6.0625 C-0.5525 6.0625 -1.5425 6.0625 -2.5625 6.0625 C-2.94468767 4.40635343 -3.27645102 2.73792976 -3.5625 1.0625 C-2.5625 0.0625 -2.5625 0.0625 0 0 Z " fill="#C4A6AC" transform="translate(242.5625,240.9375)"/>
<path d="M0 0 C0.66 0.33 1.32 0.66 2 1 C2.625 4.0625 2.625 4.0625 3 7 C0.525 6.01 0.525 6.01 -2 5 C-2 3.68 -2 2.36 -2 1 C-1.34 0.67 -0.68 0.34 0 0 Z " fill="#131513" transform="translate(82,191)"/>
<path d="M0 0 C4.455 0.99 4.455 0.99 9 2 C9 2.99 9 3.98 9 5 C2.25 3.375 2.25 3.375 0 0 Z " fill="#E8E0E2" transform="translate(108,186)"/>
<path d="M0 0 C0.66 0.33 1.32 0.66 2 1 C-0.77280706 4.08089673 -3.06326356 5.68775452 -7 7 C-5.66667905 3.00003714 -3.5042173 2.16217663 0 0 Z " fill="#E6E6E5" transform="translate(102,175)"/>
<path d="M0 0 C0.66 1.32 1.32 2.64 2 4 C0.35 5.32 -1.3 6.64 -3 8 C-3.66 7.67 -4.32 7.34 -5 7 C-3.35 4.69 -1.7 2.38 0 0 Z " fill="#201C19" transform="translate(119,168)"/>
<path d="M0 0 C0.66 0 1.32 0 2 0 C2.66 1.32 3.32 2.64 4 4 C2.02 4.66 0.04 5.32 -2 6 C-1.125 1.125 -1.125 1.125 0 0 Z " fill="#E0D0C8" transform="translate(172,92)"/>
<path d="M0 0 C0.66 0 1.32 0 2 0 C2.33 1.32 2.66 2.64 3 4 C2.01 4.33 1.02 4.66 0 5 C0 6.98 0 8.96 0 11 C-0.33 11 -0.66 11 -1 11 C-1.125 3.375 -1.125 3.375 0 0 Z " fill="#E8E2DA" transform="translate(184,90)"/>
<path d="M0 0 C2.0625 0.4375 2.0625 0.4375 4 1 C3.34 1 2.68 1 2 1 C1.67 3.31 1.34 5.62 1 8 C0.34 7.67 -0.32 7.34 -1 7 C-1.04254356 5.00045254 -1.04080783 2.99958364 -1 1 C-0.67 0.67 -0.34 0.34 0 0 Z " fill="#2A1F1A" transform="translate(179,81)"/>
<path d="M0 0 C2.66735273 2.48952921 4.55746343 4.63408134 6 8 C5.01 8.33 4.02 8.66 3 9 C1.35173889 6.03312999 0.55728913 3.34373475 0 0 Z " fill="#B1686D" transform="translate(177,227)"/>
<path d="M0 0 C0.99 0.33 1.98 0.66 3 1 C3.66 0.67 4.32 0.34 5 0 C5 0.66 5 1.32 5 2 C5.66 2 6.32 2 7 2 C6.67 2.99 6.34 3.98 6 5 C4.125 4.75 4.125 4.75 2 4 C0.75 1.9375 0.75 1.9375 0 0 Z " fill="#B9A89D" transform="translate(140,182)"/>
<path d="M0 0 C0.66 0.33 1.32 0.66 2 1 C1.34 2.32 0.68 3.64 0 5 C-1.98 5 -3.96 5 -6 5 C-6 4.34 -6 3.68 -6 3 C-5.195625 2.690625 -4.39125 2.38125 -3.5625 2.0625 C-1.10919595 1.23664655 -1.10919595 1.23664655 0 0 Z " fill="#AFADA4" transform="translate(118,173)"/>
<path d="M0 0 C-1.8125 2 -1.8125 2 -4 4 C-4.99 4 -5.98 4 -7 4 C-7.33 3.01 -7.66 2.02 -8 1 C-5.07175348 0.02391783 -3.04386724 -0.08226668 0 0 Z " fill="#9E8680" transform="translate(184,153)"/>
<path d="M0 0 C2.1519437 3.22791555 2.20086443 4.28400809 2 8 C1.01 8.33 0.02 8.66 -1 9 C-0.67 6.03 -0.34 3.06 0 0 Z " fill="#D7C4BE" transform="translate(179,89)"/>
<path d="M0 0 C0.33 0.66 0.66 1.32 1 2 C1.99 2 2.98 2 4 2 C4 2.66 4 3.32 4 4 C3.01 4 2.02 4 1 4 C1 5.32 1 6.64 1 8 C0.34 8 -0.32 8 -1 8 C-0.67 5.36 -0.34 2.72 0 0 Z " fill="#AAA39A" transform="translate(193,86)"/>
<path d="M0 0 C0.99 0.33 1.98 0.66 3 1 C3 1.66 3 2.32 3 3 C3.99 2.67 4.98 2.34 6 2 C5.67 2.99 5.34 3.98 5 5 C3.35 5.33 1.7 5.66 0 6 C0 4.02 0 2.04 0 0 Z " fill="#665E5B" transform="translate(192,83)"/>
<path d="M0 0 C2 1.375 2 1.375 4 3 C4 3.66 4 4.32 4 5 C4.66 5.33 5.32 5.66 6 6 C3.03 5.505 3.03 5.505 0 5 C0 3.33333333 0 1.66666667 0 0 Z " fill="#8D4D54" transform="translate(201,251)"/>
<path d="M0 0 C1.75 0.125 1.75 0.125 4 1 C6.25 4.0625 6.25 4.0625 8 7 C5.05043472 5.63055898 2.47531189 4.12169591 0 2 C0 1.34 0 0.68 0 0 Z " fill="#D0797F" transform="translate(91,245)"/>
<path d="M0 0 C0.99 0.33 1.98 0.66 3 1 C3.33 2.65 3.66 4.3 4 6 C2.68 5.34 1.36 4.68 0 4 C0.66 4 1.32 4 2 4 C2 3.34 2 2.68 2 2 C0.02 2.99 0.02 2.99 -2 4 C-2 3.01 -2 2.02 -2 1 C-1.34 0.67 -0.68 0.34 0 0 Z " fill="#8B7F7F" transform="translate(145,194)"/>
<path d="M0 0 C1.2065625 0.0309375 1.2065625 0.0309375 2.4375 0.0625 C2.4375 1.7125 2.4375 3.3625 2.4375 5.0625 C-0.03050047 3.91076645 -1.61033565 3.01466435 -3.5625 1.0625 C-2.5625 0.0625 -2.5625 0.0625 0 0 Z " fill="#B6A799" transform="translate(127.5625,167.9375)"/>
<path d="M0 0 C1.2077558 3.62326739 0.54311128 4.64146369 -1 8 C-1.99 8 -2.98 8 -4 8 C-3.67 6.68 -3.34 5.36 -3 4 C-2.34 4 -1.68 4 -1 4 C-0.67 2.68 -0.34 1.36 0 0 Z " fill="#736561" transform="translate(350,282)"/>
<path d="M0 0 C0.99 0.33 1.98 0.66 3 1 C2.01 2.485 2.01 2.485 1 4 C1.30840599 6.15274948 1.30840599 6.15274948 2 8 C0.4375 6.8125 0.4375 6.8125 -1 5 C-0.6875 2.3125 -0.6875 2.3125 0 0 Z " fill="#B7AEAA" transform="translate(235,273)"/>
<path d="M0 0 C0.66 0.33 1.32 0.66 2 1 C0.02 3.97 0.02 3.97 -2 7 C-2.99 6.67 -3.98 6.34 -5 6 C-3.35 4.02 -1.7 2.04 0 0 Z " fill="#F2E8E6" transform="translate(234,266)"/>
<path d="M0 0 C0.99 0 1.98 0 3 0 C3.66 2.31 4.32 4.62 5 7 C4.34 7 3.68 7 3 7 C0 2.61538462 0 2.61538462 0 0 Z " fill="#EFB1B4" transform="translate(158,207)"/>
<path d="M0 0 C0.66 1.32 1.32 2.64 2 4 C0.68 4.99 -0.64 5.98 -2 7 C-2.6875 5.1875 -2.6875 5.1875 -3 3 C-1.5625 1.25 -1.5625 1.25 0 0 Z " fill="#413531" transform="translate(103,56)"/>
</svg>
